<?xml version="1.0" encoding="UTF-8" standalone="no"?>
<!DOCTYPE svg PUBLIC "-//W3C//DTD SVG 1.1//EN"
 "http://www.w3.org/Graphics/SVG/1.1/DTD/svg11.dtd">
<!-- Generated by graphviz version 12.2.1 (0)
 -->
<!-- Title: G Pages: 1 -->
<svg width="2922pt" height="1482pt"
 viewBox="0.00 0.00 2922.07 1481.88" xmlns="http://www.w3.org/2000/svg" xmlns:xlink="http://www.w3.org/1999/xlink">
<g id="graph0" class="graph" transform="scale(1 1) rotate(0) translate(4 1477.88)">
<title>G</title>
<polygon fill="white" stroke="none" points="-4,4 -4,-1477.88 2918.07,-1477.88 2918.07,4 -4,4"/>
<g id="clust1" class="cluster">
<title>cluster_iot</title>
<polygon fill="white" stroke="gray" stroke-dasharray="5,2" points="2447.29,-328 2447.29,-928 2597.04,-928 2597.04,-328 2447.29,-328"/>
<text text-anchor="middle" x="2522.16" y="-914.5" font-family="Helvetica,sans-Serif" font-size="10.00">IoT / Smart Home (WiFi)</text>
</g>
<g id="clust2" class="cluster">
<title>cluster_transient</title>
<polygon fill="white" stroke="gray" stroke-dasharray="5,2" points="2378.75,-8 2378.75,-320 2665.57,-320 2665.57,-8 2378.75,-8"/>
<text text-anchor="middle" x="2522.16" y="-306.5" font-family="Helvetica,sans-Serif" font-size="10.00">Transient / Mobile (WiFi, rotating MACs)</text>
</g>
<g id="clust3" class="cluster">
<title>cluster_legend</title>
<polygon fill="white" stroke="gray" stroke-dasharray="5,2" points="8,-967 8,-1430 172.75,-1430 172.75,-967 8,-967"/>
<text text-anchor="middle" x="90.38" y="-1416.5" font-family="Helvetica,sans-Serif" font-size="10.00">Legend</text>
</g>
<!-- internet -->
<g id="node1" class="node">
<title>internet</title>
<ellipse fill="#e0e0e0" stroke="black" cx="90.38" cy="-924" rx="52.26" ry="18"/>
<ellipse fill="none" stroke="black" cx="90.38" cy="-924" rx="56.26" ry="22"/>
<text text-anchor="middle" x="90.38" y="-919.33" font-family="Times,serif" font-size="14.00">Internet</text>
</g>
<!-- verizon -->
<g id="node2" class="node">
<title>verizon</title>
<polygon fill="#ffcc80" stroke="black" points="452,-945.25 310.75,-945.25 310.75,-902.75 452,-902.75 452,-945.25"/>
<text text-anchor="middle" x="381.38" y="-927.95" font-family="Times,serif" font-size="14.00">Verizon CR1000B</text>
<text text-anchor="middle" x="381.38" y="-910.7" font-family="Times,serif" font-size="14.00">192.168.0.1</text>
</g>
<!-- internet&#45;&gt;verizon -->
<g id="edge1" class="edge">
<title>internet&#45;&gt;verizon</title>
<path fill="none" stroke="black" d="M147.1,-924C190.22,-924 250.57,-924 299.08,-924"/>
<polygon fill="black" stroke="black" points="298.99,-927.5 308.99,-924 298.99,-920.5 298.99,-927.5"/>
<text text-anchor="middle" x="237.75" y="-927.95" font-family="Times,serif" font-size="14.00"> Coax ~1Gbps</text>
</g>
<!-- homepi -->
<g id="node3" class="node">
<title>homepi</title>
<polygon fill="#c8e6c9" stroke="black" points="759.88,-998.88 614.12,-998.88 614.12,-939.12 759.88,-939.12 759.88,-998.88"/>
<text text-anchor="middle" x="687" y="-981.58" font-family="Times,serif" font-size="14.00">home&#45;pi</text>
<text text-anchor="middle" x="687" y="-964.33" font-family="Times,serif" font-size="14.00">Headscale / PDNS</text>
<text text-anchor="middle" x="687" y="-947.08" font-family="Times,serif" font-size="14.00">192.168.0.154</text>
</g>
<!-- verizon&#45;&gt;homepi -->
<g id="edge2" class="edge">
<title>verizon&#45;&gt;homepi</title>
<path fill="none" stroke="black" d="M452.41,-934.38C497.16,-941.01 555.42,-949.65 602.56,-956.63"/>
<polygon fill="black" stroke="black" points="601.77,-960.05 612.18,-958.06 602.8,-953.13 601.77,-960.05"/>
<text text-anchor="middle" x="531.38" y="-958.39" font-family="Times,serif" font-size="14.00"> 1GbE | :6767</text>
</g>
<!-- router -->
<g id="node4" class="node">
<title>router</title>
<polygon fill="#bbdefb" stroke="black" points="763.25,-909.88 610.75,-909.88 610.75,-850.12 763.25,-850.12 763.25,-909.88"/>
<text text-anchor="middle" x="687" y="-892.58" font-family="Times,serif" font-size="14.00">ROUTER</text>
<text text-anchor="middle" x="687" y="-875.33" font-family="Times,serif" font-size="14.00">RB5009UPr+S+IN</text>
<text text-anchor="middle" x="687" y="-858.08" font-family="Times,serif" font-size="14.00">192.168.1.1 / .5.1</text>
</g>
<!-- verizon&#45;&gt;router -->
<g id="edge3" class="edge">
<title>verizon&#45;&gt;router</title>
<path fill="none" stroke="black" d="M452.29,-904.54C464.83,-901.05 474,-898.5 474,-898.5 474,-898.5 540.61,-892.69 599.16,-887.58"/>
<polygon fill="black" stroke="black" points="599.2,-891.09 608.85,-886.73 598.59,-884.11 599.2,-891.09"/>
<text text-anchor="middle" x="531.38" y="-919.7" font-family="Times,serif" font-size="14.00"> 1GbE (2GWAN)</text>
<text text-anchor="middle" x="531.38" y="-902.45" font-family="Times,serif" font-size="14.00">WAN .0.2</text>
</g>
<!-- core -->
<g id="node5" class="node">
<title>core</title>
<polygon fill="#fff9c4" stroke="black" points="1251.08,-1084.88 1092.68,-1084.88 1092.68,-1025.12 1251.08,-1025.12 1251.08,-1084.88"/>
<text text-anchor="middle" x="1171.88" y="-1067.58" font-family="Times,serif" font-size="14.00">CORE SWITCH</text>
<text text-anchor="middle" x="1171.88" y="-1050.33" font-family="Times,serif" font-size="14.00">CRS305&#45;1G&#45;4S+</text>
<text text-anchor="middle" x="1171.88" y="-1033.08" font-family="Times,serif" font-size="14.00">192.168.5.4</text>
</g>
<!-- router&#45;&gt;core -->
<g id="edge4" class="edge">
<title>router&#45;&gt;core</title>
<path fill="none" stroke="black" d="M738.61,-910.27C752.22,-918.41 763.25,-925 763.25,-925 763.25,-925 785.25,-1022 785.25,-1022 785.25,-1022 967.3,-1037.58 1081.23,-1047.33"/>
<polygon fill="black" stroke="black" points="1080.6,-1050.79 1090.87,-1048.15 1081.2,-1043.81 1080.6,-1050.79"/>
<text text-anchor="middle" x="922.88" y="-1049.2" font-family="Times,serif" font-size="14.00"> 10G SFP+ (10GsfpLAN→sfp&#45;sfpplus4)</text>
</g>
<!-- router&#45;&gt;core -->
<g id="edge5" class="edge">
<title>router&#45;&gt;core</title>
<path fill="none" stroke="gray" stroke-dasharray="5,2" d="M738.61,-910.27C752.22,-918.41 763.25,-925 763.25,-925 763.25,-925 785.25,-968 785.25,-968 785.25,-968 1060.5,-997.75 1060.5,-997.75 1060.5,-997.75 1079.83,-1007.78 1102.32,-1019.44"/>
<polygon fill="gray" stroke="gray" points="1100.62,-1022.5 1111.11,-1024 1103.85,-1016.29 1100.62,-1022.5"/>
<text text-anchor="middle" x="922.88" y="-1001.7" font-family="Times,serif" font-size="14.00"> 1G RJ45 (pi→ether1) mgmt</text>
</g>
<!-- vpin -->
<g id="node6" class="node">
<title>vpin</title>
<polygon fill="#c8e6c9" stroke="black" points="1231.63,-989.88 1112.13,-989.88 1112.13,-930.12 1231.63,-930.12 1231.63,-989.88"/>
<text text-anchor="middle" x="1171.88" y="-972.58" font-family="Times,serif" font-size="14.00">vpin</text>
<text text-anchor="middle" x="1171.88" y="-955.33" font-family="Times,serif" font-size="14.00">Mullvad exit</text>
<text text-anchor="middle" x="1171.88" y="-938.08" font-family="Times,serif" font-size="14.00">192.168.5.252</text>
</g>
<!-- router&#45;&gt;vpin -->
<g id="edge6" class="edge">
<title>router&#45;&gt;vpin</title>
<path fill="none" stroke="black" d="M763.67,-898.67C776.22,-901.77 785.25,-904 785.25,-904 785.25,-904 989.59,-933.67 1100.77,-949.82"/>
<polygon fill="black" stroke="black" points="1099.99,-953.24 1110.39,-951.22 1101,-946.32 1099.99,-953.24"/>
<text text-anchor="middle" x="922.88" y="-947.4" font-family="Times,serif" font-size="14.00"> eth3 1G</text>
</g>
<!-- jetkvm -->
<g id="node7" class="node">
<title>jetkvm</title>
<polygon fill="#e1bee7" stroke="black" points="1231.63,-901.25 1112.13,-901.25 1112.13,-858.75 1231.63,-858.75 1231.63,-901.25"/>
<text text-anchor="middle" x="1171.88" y="-883.95" font-family="Times,serif" font-size="14.00">JetKVM</text>
<text text-anchor="middle" x="1171.88" y="-866.7" font-family="Times,serif" font-size="14.00">192.168.5.187</text>
</g>
<!-- router&#45;&gt;jetkvm -->
<g id="edge7" class="edge">
<title>router&#45;&gt;jetkvm</title>
<path fill="none" stroke="black" d="M763.71,-880C856.02,-880 1010.77,-880 1100.56,-880"/>
<polygon fill="black" stroke="black" points="1100.46,-883.5 1110.46,-880 1100.46,-876.5 1100.46,-883.5"/>
<text text-anchor="middle" x="922.88" y="-883.95" font-family="Times,serif" font-size="14.00"> ether4 1G</text>
</g>
<!-- cam_driveway -->
<g id="node8" class="node">
<title>cam_driveway</title>
<polygon fill="#ffcdd2" stroke="black" points="1252.63,-829.25 1091.13,-829.25 1091.13,-786.75 1252.63,-786.75 1252.63,-829.25"/>
<text text-anchor="middle" x="1171.88" y="-811.95" font-family="Times,serif" font-size="14.00">Front Driveway cam</text>
<text text-anchor="middle" x="1171.88" y="-794.7" font-family="Times,serif" font-size="14.00">192.168.1.66</text>
</g>
<!-- router&#45;&gt;cam_driveway -->
<g id="edge8" class="edge">
<title>router&#45;&gt;cam_driveway</title>
<path fill="none" stroke="black" d="M763.67,-861.13C776.22,-858 785.25,-855.75 785.25,-855.75 785.25,-855.75 965.8,-833.39 1079.81,-819.28"/>
<polygon fill="black" stroke="black" points="1079.98,-822.78 1089.47,-818.08 1079.12,-815.84 1079.98,-822.78"/>
<text text-anchor="middle" x="922.88" y="-859.7" font-family="Times,serif" font-size="14.00"> ether7 1G</text>
</g>
<!-- u7lite -->
<g id="node9" class="node">
<title>u7lite</title>
<polygon fill="#d7ccc8" stroke="black" points="1261.25,-757.88 1082.5,-757.88 1082.5,-698.12 1261.25,-698.12 1261.25,-757.88"/>
<text text-anchor="middle" x="1171.88" y="-740.58" font-family="Times,serif" font-size="14.00">U7 Lite</text>
<text text-anchor="middle" x="1171.88" y="-723.33" font-family="Times,serif" font-size="14.00">WiFi 7 AP (Blue Room)</text>
<text text-anchor="middle" x="1171.88" y="-706.08" font-family="Times,serif" font-size="14.00">192.168.5.173</text>
</g>
<!-- router&#45;&gt;u7lite -->
<g id="edge9" class="edge">
<title>router&#45;&gt;u7lite</title>
<path fill="none" stroke="black" d="M723.66,-849.84C751.42,-826.37 785.25,-797.75 785.25,-797.75 785.25,-797.75 956.93,-766.7 1071.19,-746.03"/>
<polygon fill="black" stroke="black" points="1071.7,-749.5 1080.92,-744.27 1070.45,-742.61 1071.7,-749.5"/>
<text text-anchor="middle" x="922.88" y="-801.7" font-family="Times,serif" font-size="14.00"> ether6 1G</text>
</g>
<!-- upstairs_core -->
<g id="node10" class="node">
<title>upstairs_core</title>
<polygon fill="#fff9c4" stroke="black" points="1729.13,-1256.88 1585.13,-1256.88 1585.13,-1197.12 1729.13,-1197.12 1729.13,-1256.88"/>
<text text-anchor="middle" x="1657.13" y="-1239.58" font-family="Times,serif" font-size="14.00">UPSTAIRS&#45;CORE</text>
<text text-anchor="middle" x="1657.13" y="-1222.33" font-family="Times,serif" font-size="14.00">CRS305&#45;1G&#45;4S+</text>
<text text-anchor="middle" x="1657.13" y="-1205.08" font-family="Times,serif" font-size="14.00">192.168.5.5</text>
</g>
<!-- core&#45;&gt;upstairs_core -->
<g id="edge10" class="edge">
<title>core&#45;&gt;upstairs_core</title>
<path fill="none" stroke="black" d="M1251.32,-1082.92C1340.07,-1114.51 1483.93,-1165.71 1574.12,-1197.81"/>
<polygon fill="black" stroke="black" points="1572.82,-1201.06 1583.41,-1201.12 1575.17,-1194.47 1572.82,-1201.06"/>
<text text-anchor="middle" x="1418.25" y="-1193.8" font-family="Times,serif" font-size="14.00"> sfp&#45;sfpplus2→2 10G SFP+</text>
</g>
<!-- office -->
<g id="node12" class="node">
<title>office</title>
<polygon fill="#fff9c4" stroke="black" points="1729.13,-1084.88 1585.13,-1084.88 1585.13,-1025.12 1729.13,-1025.12 1729.13,-1084.88"/>
<text text-anchor="middle" x="1657.13" y="-1067.58" font-family="Times,serif" font-size="14.00">OFFICE SWITCH</text>
<text text-anchor="middle" x="1657.13" y="-1050.33" font-family="Times,serif" font-size="14.00">CRS310&#45;8G+2S+</text>
<text text-anchor="middle" x="1657.13" y="-1033.08" font-family="Times,serif" font-size="14.00">192.168.5.2</text>
</g>
<!-- core&#45;&gt;office -->
<g id="edge15" class="edge">
<title>core&#45;&gt;office</title>
<path fill="none" stroke="black" d="M1251.32,-1055C1339.88,-1055 1483.35,-1055 1573.56,-1055"/>
<polygon fill="black" stroke="black" points="1573.33,-1058.5 1583.33,-1055 1573.33,-1051.5 1573.33,-1058.5"/>
<text text-anchor="middle" x="1418.25" y="-1058.95" font-family="Times,serif" font-size="14.00"> sfp&#45;sfpplus3→sfp&#45;sfpplus2 10G SFP+</text>
</g>
<!-- nas -->
<g id="node15" class="node">
<title>nas</title>
<polygon fill="#c8e6c9" stroke="black" points="1739,-996.5 1575.25,-996.5 1575.25,-919.5 1739,-919.5 1739,-996.5"/>
<text text-anchor="middle" x="1657.13" y="-979.2" font-family="Times,serif" font-size="14.00">nas</text>
<text text-anchor="middle" x="1657.13" y="-961.95" font-family="Times,serif" font-size="14.00">ZFS / k3s / Attic</text>
<text text-anchor="middle" x="1657.13" y="-944.7" font-family="Times,serif" font-size="14.00">192.168.5.175 (10G)</text>
<text text-anchor="middle" x="1657.13" y="-927.45" font-family="Times,serif" font-size="14.00">.176 (1G)</text>
</g>
<!-- core&#45;&gt;nas -->
<g id="edge14" class="edge">
<title>core&#45;&gt;nas</title>
<path fill="none" stroke="black" d="M1251.32,-1037.76C1269.3,-1033.81 1283.25,-1030.75 1283.25,-1030.75 1283.25,-1030.75 1453.17,-997.6 1563.6,-976.05"/>
<polygon fill="black" stroke="black" points="1564.13,-979.52 1573.27,-974.17 1562.79,-972.65 1564.13,-979.52"/>
<text text-anchor="middle" x="1418.25" y="-1034.7" font-family="Times,serif" font-size="14.00"> sfp&#45;sfpplus1 10G SFP+</text>
</g>
<!-- secu -->
<g id="node21" class="node">
<title>secu</title>
<polygon fill="#c8e6c9" stroke="black" points="1735.63,-815.5 1578.63,-815.5 1578.63,-738.5 1735.63,-738.5 1735.63,-815.5"/>
<text text-anchor="middle" x="1657.13" y="-798.2" font-family="Times,serif" font-size="14.00">secu</text>
<text text-anchor="middle" x="1657.13" y="-780.95" font-family="Times,serif" font-size="14.00">Camera NVR (SW)</text>
<text text-anchor="middle" x="1657.13" y="-763.7" font-family="Times,serif" font-size="14.00">192.168.5.140</text>
<text text-anchor="middle" x="1657.13" y="-746.45" font-family="Times,serif" font-size="14.00">(via WiFi to U7Lite)</text>
</g>
<!-- u7lite&#45;&gt;secu -->
<g id="edge26" class="edge">
<title>u7lite&#45;&gt;secu</title>
<path fill="none" stroke="black" stroke-dasharray="1,5" d="M1261.71,-738.46C1274.4,-739.96 1283.25,-741 1283.25,-741 1283.25,-741 1456.99,-757.77 1567.28,-768.42"/>
<polygon fill="black" stroke="black" points="1566.62,-771.87 1576.91,-769.35 1567.29,-764.91 1566.62,-771.87"/>
<text text-anchor="middle" x="1418.25" y="-770.31" font-family="Times,serif" font-size="14.00"> WiFi</text>
</g>
<!-- cam_back -->
<g id="node24" class="node">
<title>cam_back</title>
<polygon fill="#ffcdd2" stroke="black" points="1717.63,-709.88 1596.63,-709.88 1596.63,-650.12 1717.63,-650.12 1717.63,-709.88"/>
<text text-anchor="middle" x="1657.13" y="-692.58" font-family="Times,serif" font-size="14.00">Back yard cam</text>
<text text-anchor="middle" x="1657.13" y="-675.33" font-family="Times,serif" font-size="14.00">192.168.1.60</text>
<text text-anchor="middle" x="1657.13" y="-658.08" font-family="Times,serif" font-size="14.00">(WiFi)</text>
</g>
<!-- u7lite&#45;&gt;cam_back -->
<g id="edge25" class="edge">
<title>u7lite&#45;&gt;cam_back</title>
<path fill="none" stroke="black" stroke-dasharray="1,5" d="M1261.51,-719.2C1354.61,-709.95 1499.18,-695.59 1585.07,-687.06"/>
<polygon fill="black" stroke="black" points="1585.16,-690.57 1594.76,-686.09 1584.47,-683.6 1585.16,-690.57"/>
<text text-anchor="middle" x="1418.25" y="-720.35" font-family="Times,serif" font-size="14.00"> WiFi</text>
</g>
<!-- upstairs -->
<g id="node11" class="node">
<title>upstairs</title>
<polygon fill="#fff9c4" stroke="black" points="2213.38,-1393.88 2057.12,-1393.88 2057.12,-1334.12 2213.38,-1334.12 2213.38,-1393.88"/>
<text text-anchor="middle" x="2135.25" y="-1376.58" font-family="Times,serif" font-size="14.00">UPSTAIRS SWITCH</text>
<text text-anchor="middle" x="2135.25" y="-1359.33" font-family="Times,serif" font-size="14.00">CRS310&#45;8G+2S+</text>
<text text-anchor="middle" x="2135.25" y="-1342.08" font-family="Times,serif" font-size="14.00">192.168.5.3</text>
</g>
<!-- upstairs_core&#45;&gt;upstairs -->
<g id="edge11" class="edge">
<title>upstairs_core&#45;&gt;upstairs</title>
<path fill="none" stroke="black" d="M1714.68,-1257.24C1738.58,-1270.02 1761,-1282 1761,-1282 1761,-1282 1935.4,-1320.31 2045.78,-1344.56"/>
<polygon fill="black" stroke="black" points="2044.92,-1347.96 2055.43,-1346.68 2046.42,-1341.12 2044.92,-1347.96"/>
<text text-anchor="middle" x="1896" y="-1343.72" font-family="Times,serif" font-size="14.00"> sfp&#45;sfpplus4→sfp&#45;sfpplus1 10G SFP+</text>
</g>
<!-- closet -->
<g id="node13" class="node">
<title>closet</title>
<polygon fill="#c8e6c9" stroke="black" points="2217.5,-1305.5 2053,-1305.5 2053,-1228.5 2217.5,-1228.5 2217.5,-1305.5"/>
<text text-anchor="middle" x="2135.25" y="-1288.2" font-family="Times,serif" font-size="14.00">closet</text>
<text text-anchor="middle" x="2135.25" y="-1270.95" font-family="Times,serif" font-size="14.00">k3s / Unifi / Postgres</text>
<text text-anchor="middle" x="2135.25" y="-1253.7" font-family="Times,serif" font-size="14.00">192.168.5.35 (1G)</text>
<text text-anchor="middle" x="2135.25" y="-1236.45" font-family="Times,serif" font-size="14.00">.36 (10G)</text>
</g>
<!-- upstairs_core&#45;&gt;closet -->
<g id="edge12" class="edge">
<title>upstairs_core&#45;&gt;closet</title>
<path fill="none" stroke="black" d="M1729.41,-1232.99C1812.5,-1239.97 1950.07,-1251.53 2041.43,-1259.2"/>
<polygon fill="black" stroke="black" points="2041.13,-1262.69 2051.39,-1260.04 2041.72,-1255.71 2041.13,-1262.69"/>
<text text-anchor="middle" x="1896" y="-1261.28" font-family="Times,serif" font-size="14.00"> sfp&#45;sfpplus1 10G SFP+</text>
</g>
<!-- arch -->
<g id="node14" class="node">
<title>arch</title>
<polygon fill="#c8e6c9" stroke="black" points="2211.5,-1199.5 2059,-1199.5 2059,-1122.5 2211.5,-1122.5 2211.5,-1199.5"/>
<text text-anchor="middle" x="2135.25" y="-1182.2" font-family="Times,serif" font-size="14.00">arch</text>
<text text-anchor="middle" x="2135.25" y="-1164.95" font-family="Times,serif" font-size="14.00">k3s / GPU compute</text>
<text text-anchor="middle" x="2135.25" y="-1147.7" font-family="Times,serif" font-size="14.00">192.168.5.76</text>
<text text-anchor="middle" x="2135.25" y="-1130.45" font-family="Times,serif" font-size="14.00">(I226 2.5G NIC)</text>
</g>
<!-- upstairs_core&#45;&gt;arch -->
<g id="edge13" class="edge">
<title>upstairs_core&#45;&gt;arch</title>
<path fill="none" stroke="black" d="M1729.41,-1217.12C1814.33,-1205.35 1956.15,-1185.69 2047.4,-1173.04"/>
<polygon fill="black" stroke="black" points="2047.62,-1176.54 2057.04,-1171.7 2046.66,-1169.61 2047.62,-1176.54"/>
<text text-anchor="middle" x="1896" y="-1215" font-family="Times,serif" font-size="14.00"> sfp&#45;sfpplus3 10G SFP+</text>
</g>
<!-- glkvm -->
<g id="node16" class="node">
<title>glkvm</title>
<polygon fill="#e1bee7" stroke="black" points="2572.91,-1473.88 2471.41,-1473.88 2471.41,-1414.12 2572.91,-1414.12 2572.91,-1473.88"/>
<text text-anchor="middle" x="2522.16" y="-1456.58" font-family="Times,serif" font-size="14.00">GL&#45;KVM</text>
<text text-anchor="middle" x="2522.16" y="-1439.33" font-family="Times,serif" font-size="14.00">OpenWrt</text>
<text text-anchor="middle" x="2522.16" y="-1422.08" font-family="Times,serif" font-size="14.00">192.168.5.8</text>
</g>
<!-- upstairs&#45;&gt;glkvm -->
<g id="edge16" class="edge">
<title>upstairs&#45;&gt;glkvm</title>
<path fill="none" stroke="black" d="M2213.71,-1382.01C2228.52,-1385.45 2239.5,-1388 2239.5,-1388 2239.5,-1388 2377.24,-1415.39 2460.07,-1431.85"/>
<polygon fill="black" stroke="black" points="2459.16,-1435.24 2469.65,-1433.76 2460.52,-1428.37 2459.16,-1435.24"/>
<text text-anchor="middle" x="2302.12" y="-1416.6" font-family="Times,serif" font-size="14.00"> ether2 1G</text>
</g>
<!-- brother -->
<g id="node17" class="node">
<title>brother</title>
<polygon fill="#e1bee7" stroke="black" points="2585.29,-1385.25 2459.04,-1385.25 2459.04,-1342.75 2585.29,-1342.75 2585.29,-1385.25"/>
<text text-anchor="middle" x="2522.16" y="-1367.95" font-family="Times,serif" font-size="14.00">Brother printer</text>
<text text-anchor="middle" x="2522.16" y="-1350.7" font-family="Times,serif" font-size="14.00">192.168.5.6</text>
</g>
<!-- upstairs&#45;&gt;brother -->
<g id="edge17" class="edge">
<title>upstairs&#45;&gt;brother</title>
<path fill="none" stroke="black" d="M2213.68,-1364C2281.85,-1364 2380.44,-1364 2447.47,-1364"/>
<polygon fill="black" stroke="black" points="2447.26,-1367.5 2457.26,-1364 2447.26,-1360.5 2447.26,-1367.5"/>
<text text-anchor="middle" x="2302.12" y="-1367.95" font-family="Times,serif" font-size="14.00"> ether6 100M HD</text>
</g>
<!-- nvr -->
<g id="node18" class="node">
<title>nvr</title>
<polygon fill="#ffcdd2" stroke="black" points="2577.41,-1313.88 2466.91,-1313.88 2466.91,-1254.12 2577.41,-1254.12 2577.41,-1313.88"/>
<text text-anchor="middle" x="2522.16" y="-1296.58" font-family="Times,serif" font-size="14.00">Reolink NVR</text>
<text text-anchor="middle" x="2522.16" y="-1279.33" font-family="Times,serif" font-size="14.00">(PoE switch)</text>
<text text-anchor="middle" x="2522.16" y="-1262.08" font-family="Times,serif" font-size="14.00">192.168.1.67</text>
</g>
<!-- upstairs&#45;&gt;nvr -->
<g id="edge18" class="edge">
<title>upstairs&#45;&gt;nvr</title>
<path fill="none" stroke="black" d="M2213.71,-1345.81C2228.52,-1342.33 2239.5,-1339.75 2239.5,-1339.75 2239.5,-1339.75 2372.14,-1313.5 2455.37,-1297.02"/>
<polygon fill="black" stroke="black" points="2455.91,-1300.48 2465.04,-1295.11 2454.55,-1293.62 2455.91,-1300.48"/>
<text text-anchor="middle" x="2302.12" y="-1343.7" font-family="Times,serif" font-size="14.00"> ether1 1G (PoE)</text>
</g>
<!-- u7proxgs -->
<g id="node22" class="node">
<title>u7proxgs</title>
<polygon fill="#d7ccc8" stroke="black" points="2209.25,-1093.5 2061.25,-1093.5 2061.25,-1016.5 2209.25,-1016.5 2209.25,-1093.5"/>
<text text-anchor="middle" x="2135.25" y="-1076.2" font-family="Times,serif" font-size="14.00">U7 Pro XGS</text>
<text text-anchor="middle" x="2135.25" y="-1058.95" font-family="Times,serif" font-size="14.00">WiFi 7 tri&#45;band AP</text>
<text text-anchor="middle" x="2135.25" y="-1041.7" font-family="Times,serif" font-size="14.00">Office</text>
<text text-anchor="middle" x="2135.25" y="-1024.45" font-family="Times,serif" font-size="14.00">192.168.5.171</text>
</g>
<!-- office&#45;&gt;u7proxgs -->
<g id="edge21" class="edge">
<title>office&#45;&gt;u7proxgs</title>
<path fill="none" stroke="black" d="M1729.41,-1055C1814.99,-1055 1958.35,-1055 2049.51,-1055"/>
<polygon fill="black" stroke="black" points="2049.4,-1058.5 2059.4,-1055 2049.4,-1051.5 2049.4,-1058.5"/>
<text text-anchor="middle" x="1896" y="-1058.95" font-family="Times,serif" font-size="14.00"> sfp&#45;sfpplus1 10G SFP+</text>
</g>
<!-- pite -->
<g id="node39" class="node">
<title>pite</title>
<polygon fill="#c8e6c9" stroke="black" points="2195,-987.88 2075.5,-987.88 2075.5,-928.12 2195,-928.12 2195,-987.88"/>
<text text-anchor="middle" x="2135.25" y="-970.58" font-family="Times,serif" font-size="14.00">pite</text>
<text text-anchor="middle" x="2135.25" y="-953.33" font-family="Times,serif" font-size="14.00">k3s canary</text>
<text text-anchor="middle" x="2135.25" y="-936.08" font-family="Times,serif" font-size="14.00">192.168.5.213</text>
</g>
<!-- office&#45;&gt;pite -->
<g id="edge39" class="edge">
<title>office&#45;&gt;pite</title>
<path fill="none" stroke="black" d="M1729.58,-1038.16C1747.13,-1034.02 1761,-1030.75 1761,-1030.75 1761,-1030.75 1955.83,-992.78 2063.96,-971.7"/>
<polygon fill="black" stroke="black" points="2064.48,-975.17 2073.62,-969.82 2063.14,-968.29 2064.48,-975.17"/>
<text text-anchor="middle" x="1896" y="-1034.7" font-family="Times,serif" font-size="14.00"> ether1 1G</text>
</g>
<!-- cam_gate -->
<g id="node19" class="node">
<title>cam_gate</title>
<polygon fill="#ffcdd2" stroke="black" points="2910.7,-1341.25 2782.95,-1341.25 2782.95,-1298.75 2910.7,-1298.75 2910.7,-1341.25"/>
<text text-anchor="middle" x="2846.82" y="-1323.95" font-family="Times,serif" font-size="14.00">Front Gate cam</text>
<text text-anchor="middle" x="2846.82" y="-1306.7" font-family="Times,serif" font-size="14.00">192.168.1.64</text>
</g>
<!-- nvr&#45;&gt;cam_gate -->
<g id="edge19" class="edge">
<title>nvr&#45;&gt;cam_gate</title>
<path fill="none" stroke="black" d="M2577.9,-1290.11C2631.1,-1296.04 2712.31,-1305.1 2771.37,-1311.69"/>
<polygon fill="black" stroke="black" points="2770.67,-1315.14 2781,-1312.77 2771.45,-1308.18 2770.67,-1315.14"/>
<text text-anchor="middle" x="2718.57" y="-1313.31" font-family="Times,serif" font-size="14.00"> PoE 100M</text>
</g>
<!-- cam_porch -->
<g id="node20" class="node">
<title>cam_porch</title>
<polygon fill="#ffcdd2" stroke="black" points="2914.07,-1269.25 2779.57,-1269.25 2779.57,-1226.75 2914.07,-1226.75 2914.07,-1269.25"/>
<text text-anchor="middle" x="2846.82" y="-1251.95" font-family="Times,serif" font-size="14.00">Front Porch cam</text>
<text text-anchor="middle" x="2846.82" y="-1234.7" font-family="Times,serif" font-size="14.00">192.168.1.63</text>
</g>
<!-- nvr&#45;&gt;cam_porch -->
<g id="edge20" class="edge">
<title>nvr&#45;&gt;cam_porch</title>
<path fill="none" stroke="black" d="M2577.9,-1277.89C2630.17,-1272.06 2709.48,-1263.21 2768.26,-1256.65"/>
<polygon fill="black" stroke="black" points="2768.3,-1260.17 2777.85,-1255.58 2767.53,-1253.21 2768.3,-1260.17"/>
<text text-anchor="middle" x="2718.57" y="-1269.95" font-family="Times,serif" font-size="14.00"> PoE 100M</text>
</g>
<!-- officepc -->
<g id="node23" class="node">
<title>officepc</title>
<polygon fill="#c8e6c9" stroke="black" points="2587.91,-1190.5 2456.41,-1190.5 2456.41,-1113.5 2587.91,-1113.5 2587.91,-1190.5"/>
<text text-anchor="middle" x="2522.16" y="-1173.2" font-family="Times,serif" font-size="14.00">office</text>
<text text-anchor="middle" x="2522.16" y="-1155.95" font-family="Times,serif" font-size="14.00">k3s agent / GPU</text>
<text text-anchor="middle" x="2522.16" y="-1138.7" font-family="Times,serif" font-size="14.00">192.168.5.209</text>
<text text-anchor="middle" x="2522.16" y="-1121.45" font-family="Times,serif" font-size="14.00">(via WiFi)</text>
</g>
<!-- u7proxgs&#45;&gt;officepc -->
<g id="edge22" class="edge">
<title>u7proxgs&#45;&gt;officepc</title>
<path fill="none" stroke="black" d="M2209.55,-1073.47C2277.02,-1090.47 2376.68,-1115.59 2445.02,-1132.81"/>
<polygon fill="black" stroke="black" points="2444.12,-1136.19 2454.67,-1135.24 2445.83,-1129.41 2444.12,-1136.19"/>
<text text-anchor="middle" x="2302.12" y="-1116.14" font-family="Times,serif" font-size="14.00"> WiFi 6GHz</text>
</g>
<!-- cam_garage -->
<g id="node25" class="node">
<title>cam_garage</title>
<polygon fill="#ffcdd2" stroke="black" points="2577.41,-1084.88 2466.91,-1084.88 2466.91,-1025.12 2577.41,-1025.12 2577.41,-1084.88"/>
<text text-anchor="middle" x="2522.16" y="-1067.58" font-family="Times,serif" font-size="14.00">Garage cam</text>
<text text-anchor="middle" x="2522.16" y="-1050.33" font-family="Times,serif" font-size="14.00">192.168.1.61</text>
<text text-anchor="middle" x="2522.16" y="-1033.08" font-family="Times,serif" font-size="14.00">(WiFi)</text>
</g>
<!-- u7proxgs&#45;&gt;cam_garage -->
<g id="edge23" class="edge">
<title>u7proxgs&#45;&gt;cam_garage</title>
<path fill="none" stroke="black" stroke-dasharray="1,5" d="M2209.55,-1055C2280.38,-1055 2386.71,-1055 2455.01,-1055"/>
<polygon fill="black" stroke="black" points="2454.96,-1058.5 2464.96,-1055 2454.96,-1051.5 2454.96,-1058.5"/>
<text text-anchor="middle" x="2302.12" y="-1058.95" font-family="Times,serif" font-size="14.00"> WiFi</text>
</g>
<!-- cam_side -->
<g id="node26" class="node">
<title>cam_side</title>
<polygon fill="#ffcdd2" stroke="black" points="2581.16,-995.88 2463.16,-995.88 2463.16,-936.12 2581.16,-936.12 2581.16,-995.88"/>
<text text-anchor="middle" x="2522.16" y="-978.58" font-family="Times,serif" font-size="14.00">Side yard cam</text>
<text text-anchor="middle" x="2522.16" y="-961.33" font-family="Times,serif" font-size="14.00">192.168.1.65</text>
<text text-anchor="middle" x="2522.16" y="-944.08" font-family="Times,serif" font-size="14.00">(WiFi)</text>
</g>
<!-- u7proxgs&#45;&gt;cam_side -->
<g id="edge24" class="edge">
<title>u7proxgs&#45;&gt;cam_side</title>
<path fill="none" stroke="black" stroke-dasharray="1,5" d="M2209.64,-1037.76C2226.45,-1033.81 2239.5,-1030.75 2239.5,-1030.75 2239.5,-1030.75 2368.2,-1001.16 2451.6,-981.99"/>
<polygon fill="black" stroke="black" points="2452.36,-985.41 2461.33,-979.76 2450.8,-978.58 2452.36,-985.41"/>
<text text-anchor="middle" x="2302.12" y="-1034.7" font-family="Times,serif" font-size="14.00"> WiFi</text>
</g>
<!-- iot_aidot1 -->
<g id="node27" class="node">
<title>iot_aidot1</title>
<polygon fill="#f5f5f5" stroke="black" points="2581.91,-899.25 2462.41,-899.25 2462.41,-856.75 2581.91,-856.75 2581.91,-899.25"/>
<text text-anchor="middle" x="2522.16" y="-881.95" font-family="Times,serif" font-size="14.00">AiDot light</text>
<text text-anchor="middle" x="2522.16" y="-864.7" font-family="Times,serif" font-size="14.00">192.168.5.164</text>
</g>
<!-- u7proxgs&#45;&gt;iot_aidot1 -->
<g id="edge27" class="edge">
<title>u7proxgs&#45;&gt;iot_aidot1</title>
<path fill="none" stroke="gray" stroke-dasharray="1,5" d="M2203.1,-1016.15C2222.95,-1004.62 2239.5,-995 2239.5,-995 2239.5,-995 2378.75,-922 2378.75,-922 2378.75,-922 2415.3,-910.71 2451.37,-899.56"/>
<polygon fill="gray" stroke="gray" points="2452.04,-903.02 2460.56,-896.72 2449.97,-896.33 2452.04,-903.02"/>
</g>
<!-- iot_aidot2 -->
<g id="node28" class="node">
<title>iot_aidot2</title>
<polygon fill="#f5f5f5" stroke="black" points="2581.91,-827.25 2462.41,-827.25 2462.41,-784.75 2581.91,-784.75 2581.91,-827.25"/>
<text text-anchor="middle" x="2522.16" y="-809.95" font-family="Times,serif" font-size="14.00">AiDot light</text>
<text text-anchor="middle" x="2522.16" y="-792.7" font-family="Times,serif" font-size="14.00">192.168.5.166</text>
</g>
<!-- u7proxgs&#45;&gt;iot_aidot2 -->
<g id="edge28" class="edge">
<title>u7proxgs&#45;&gt;iot_aidot2</title>
<path fill="none" stroke="gray" stroke-dasharray="1,5" d="M2195.73,-1016.2C2208.12,-1008.12 2217.5,-1002 2217.5,-1002 2217.5,-1002 2239.5,-923 2239.5,-923 2239.5,-923 2364.75,-861 2364.75,-861 2364.75,-861 2378.75,-842 2378.75,-842 2378.75,-842 2414.99,-832.84 2450.91,-823.76"/>
<polygon fill="gray" stroke="gray" points="2451.7,-827.17 2460.54,-821.33 2449.98,-820.38 2451.7,-827.17"/>
</g>
<!-- iot_aidot3 -->
<g id="node29" class="node">
<title>iot_aidot3</title>
<polygon fill="#f5f5f5" stroke="black" points="2581.91,-755.25 2462.41,-755.25 2462.41,-712.75 2581.91,-712.75 2581.91,-755.25"/>
<text text-anchor="middle" x="2522.16" y="-737.95" font-family="Times,serif" font-size="14.00">AiDot light</text>
<text text-anchor="middle" x="2522.16" y="-720.7" font-family="Times,serif" font-size="14.00">192.168.5.167</text>
</g>
<!-- u7proxgs&#45;&gt;iot_aidot3 -->
<g id="edge29" class="edge">
<title>u7proxgs&#45;&gt;iot_aidot3</title>
<path fill="none" stroke="gray" stroke-dasharray="1,5" d="M2195.73,-1016.2C2208.12,-1008.12 2217.5,-1002 2217.5,-1002 2217.5,-1002 2239.5,-861 2239.5,-861 2239.5,-861 2364.75,-823 2364.75,-823 2364.75,-823 2378.75,-770 2378.75,-770 2378.75,-770 2414.99,-760.84 2450.91,-751.76"/>
<polygon fill="gray" stroke="gray" points="2451.7,-755.17 2460.54,-749.33 2449.98,-748.38 2451.7,-755.17"/>
</g>
<!-- iot_aidot4 -->
<g id="node30" class="node">
<title>iot_aidot4</title>
<polygon fill="#f5f5f5" stroke="black" points="2581.91,-683.25 2462.41,-683.25 2462.41,-640.75 2581.91,-640.75 2581.91,-683.25"/>
<text text-anchor="middle" x="2522.16" y="-665.95" font-family="Times,serif" font-size="14.00">AiDot light</text>
<text text-anchor="middle" x="2522.16" y="-648.7" font-family="Times,serif" font-size="14.00">192.168.5.168</text>
</g>
<!-- u7proxgs&#45;&gt;iot_aidot4 -->
<g id="edge30" class="edge">
<title>u7proxgs&#45;&gt;iot_aidot4</title>
<path fill="none" stroke="gray" stroke-dasharray="1,5" d="M2195.73,-1016.2C2208.12,-1008.12 2217.5,-1002 2217.5,-1002 2217.5,-1002 2239.5,-820 2239.5,-820 2239.5,-820 2364.75,-777 2364.75,-777 2364.75,-777 2378.75,-698 2378.75,-698 2378.75,-698 2414.99,-688.84 2450.91,-679.76"/>
<polygon fill="gray" stroke="gray" points="2451.7,-683.17 2460.54,-677.33 2449.98,-676.38 2451.7,-683.17"/>
</g>
<!-- iot_akam1 -->
<g id="node31" class="node">
<title>iot_akam1</title>
<polygon fill="#f5f5f5" stroke="black" points="2589.04,-611.25 2455.29,-611.25 2455.29,-568.75 2589.04,-568.75 2589.04,-611.25"/>
<text text-anchor="middle" x="2522.16" y="-593.95" font-family="Times,serif" font-size="14.00">Akamatis sensor</text>
<text text-anchor="middle" x="2522.16" y="-576.7" font-family="Times,serif" font-size="14.00">192.168.5.170</text>
</g>
<!-- u7proxgs&#45;&gt;iot_akam1 -->
<g id="edge31" class="edge">
<title>u7proxgs&#45;&gt;iot_akam1</title>
<path fill="none" stroke="gray" stroke-dasharray="1,5" d="M2195.73,-1016.2C2208.12,-1008.12 2217.5,-1002 2217.5,-1002 2217.5,-1002 2239.5,-774 2239.5,-774 2239.5,-774 2364.75,-719 2364.75,-719 2364.75,-719 2378.75,-626 2378.75,-626 2378.75,-626 2410.52,-617.97 2444.05,-609.49"/>
<polygon fill="gray" stroke="gray" points="2444.65,-612.95 2453.49,-607.11 2442.94,-606.16 2444.65,-612.95"/>
</g>
<!-- iot_akam2 -->
<g id="node32" class="node">
<title>iot_akam2</title>
<polygon fill="#f5f5f5" stroke="black" points="2589.04,-539.25 2455.29,-539.25 2455.29,-496.75 2589.04,-496.75 2589.04,-539.25"/>
<text text-anchor="middle" x="2522.16" y="-521.95" font-family="Times,serif" font-size="14.00">Akamatis sensor</text>
<text text-anchor="middle" x="2522.16" y="-504.7" font-family="Times,serif" font-size="14.00">192.168.5.165</text>
</g>
<!-- u7proxgs&#45;&gt;iot_akam2 -->
<g id="edge32" class="edge">
<title>u7proxgs&#45;&gt;iot_akam2</title>
<path fill="none" stroke="gray" stroke-dasharray="1,5" d="M2195.73,-1016.2C2208.12,-1008.12 2217.5,-1002 2217.5,-1002 2217.5,-1002 2239.5,-716 2239.5,-716 2239.5,-716 2364.75,-638 2364.75,-638 2364.75,-638 2378.75,-554 2378.75,-554 2378.75,-554 2410.52,-545.97 2444.05,-537.49"/>
<polygon fill="gray" stroke="gray" points="2444.65,-540.95 2453.49,-535.11 2442.94,-534.16 2444.65,-540.95"/>
</g>
<!-- iot_wiz -->
<g id="node33" class="node">
<title>iot_wiz</title>
<polygon fill="#f5f5f5" stroke="black" points="2586.41,-467.25 2457.91,-467.25 2457.91,-424.75 2586.41,-424.75 2586.41,-467.25"/>
<text text-anchor="middle" x="2522.16" y="-449.95" font-family="Times,serif" font-size="14.00">WiZ smart light</text>
<text text-anchor="middle" x="2522.16" y="-432.7" font-family="Times,serif" font-size="14.00">192.168.5.132</text>
</g>
<!-- u7proxgs&#45;&gt;iot_wiz -->
<g id="edge33" class="edge">
<title>u7proxgs&#45;&gt;iot_wiz</title>
<path fill="none" stroke="gray" stroke-dasharray="1,5" d="M2195.73,-1016.2C2208.12,-1008.12 2217.5,-1002 2217.5,-1002 2217.5,-1002 2239.5,-635 2239.5,-635 2239.5,-635 2364.75,-511 2364.75,-511 2364.75,-511 2378.75,-482 2378.75,-482 2378.75,-482 2411.96,-473.61 2446.3,-464.92"/>
<polygon fill="gray" stroke="gray" points="2447.15,-468.32 2455.99,-462.48 2445.43,-461.53 2447.15,-468.32"/>
</g>
<!-- iot_switch -->
<g id="node34" class="node">
<title>iot_switch</title>
<polygon fill="#f5f5f5" stroke="black" points="2581.91,-395.88 2462.41,-395.88 2462.41,-336.12 2581.91,-336.12 2581.91,-395.88"/>
<text text-anchor="middle" x="2522.16" y="-378.57" font-family="Times,serif" font-size="14.00">John Bedroom</text>
<text text-anchor="middle" x="2522.16" y="-361.32" font-family="Times,serif" font-size="14.00">Lightswitch</text>
<text text-anchor="middle" x="2522.16" y="-344.07" font-family="Times,serif" font-size="14.00">192.168.5.172</text>
</g>
<!-- u7proxgs&#45;&gt;iot_switch -->
<g id="edge34" class="edge">
<title>u7proxgs&#45;&gt;iot_switch</title>
<path fill="none" stroke="gray" stroke-dasharray="1,5" d="M2195.73,-1016.2C2208.12,-1008.12 2217.5,-1002 2217.5,-1002 2217.5,-1002 2239.5,-508 2239.5,-508 2239.5,-508 2378.75,-410 2378.75,-410 2378.75,-410 2415.3,-398.71 2451.37,-387.56"/>
<polygon fill="gray" stroke="gray" points="2452.04,-391.02 2460.56,-384.72 2449.97,-384.33 2452.04,-391.02"/>
</g>
<!-- peloton -->
<g id="node35" class="node">
<title>peloton</title>
<polygon fill="#f5f5f5" stroke="black" points="2581.91,-291.25 2462.41,-291.25 2462.41,-248.75 2581.91,-248.75 2581.91,-291.25"/>
<text text-anchor="middle" x="2522.16" y="-273.95" font-family="Times,serif" font-size="14.00">Peloton</text>
<text text-anchor="middle" x="2522.16" y="-256.7" font-family="Times,serif" font-size="14.00">192.168.5.146</text>
</g>
<!-- u7proxgs&#45;&gt;peloton -->
<g id="edge35" class="edge">
<title>u7proxgs&#45;&gt;peloton</title>
<path fill="none" stroke="gray" stroke-dasharray="1,5" d="M2195.73,-1016.2C2208.12,-1008.12 2217.5,-1002 2217.5,-1002 2217.5,-1002 2239.5,-413 2239.5,-413 2239.5,-413 2378.75,-321 2378.75,-321 2378.75,-321 2415.3,-307.91 2451.37,-294.99"/>
<polygon fill="gray" stroke="gray" points="2452.34,-298.36 2460.58,-291.7 2449.98,-291.77 2452.34,-298.36"/>
</g>
<!-- pop_os -->
<g id="node36" class="node">
<title>pop_os</title>
<polygon fill="#f5f5f5" stroke="black" points="2584.91,-219.25 2459.41,-219.25 2459.41,-176.75 2584.91,-176.75 2584.91,-219.25"/>
<text text-anchor="middle" x="2522.16" y="-201.95" font-family="Times,serif" font-size="14.00">Pop!_OS laptop</text>
<text text-anchor="middle" x="2522.16" y="-184.7" font-family="Times,serif" font-size="14.00">192.168.5.221</text>
</g>
<!-- u7proxgs&#45;&gt;pop_os -->
<g id="edge36" class="edge">
<title>u7proxgs&#45;&gt;pop_os</title>
<path fill="none" stroke="gray" stroke-dasharray="1,5" d="M2195.73,-1016.2C2208.12,-1008.12 2217.5,-1002 2217.5,-1002 2217.5,-1002 2239.5,-324 2239.5,-324 2239.5,-324 2378.75,-234 2378.75,-234 2378.75,-234 2413.23,-225.28 2448.26,-216.43"/>
<polygon fill="gray" stroke="gray" points="2448.81,-219.9 2457.64,-214.06 2447.09,-213.11 2448.81,-219.9"/>
</g>
<!-- macbook -->
<g id="node37" class="node">
<title>macbook</title>
<polygon fill="#f5f5f5" stroke="black" points="2581.91,-147.25 2462.41,-147.25 2462.41,-104.75 2581.91,-104.75 2581.91,-147.25"/>
<text text-anchor="middle" x="2522.16" y="-129.95" font-family="Times,serif" font-size="14.00">Mac laptop</text>
<text text-anchor="middle" x="2522.16" y="-112.7" font-family="Times,serif" font-size="14.00">192.168.5.130</text>
</g>
<!-- u7proxgs&#45;&gt;macbook -->
<g id="edge37" class="edge">
<title>u7proxgs&#45;&gt;macbook</title>
<path fill="none" stroke="gray" stroke-dasharray="1,5" d="M2195.73,-1016.2C2208.12,-1008.12 2217.5,-1002 2217.5,-1002 2217.5,-1002 2239.5,-236 2239.5,-236 2239.5,-236 2378.75,-162 2378.75,-162 2378.75,-162 2414.99,-152.84 2450.91,-143.76"/>
<polygon fill="gray" stroke="gray" points="2451.7,-147.17 2460.54,-141.33 2449.98,-140.38 2451.7,-147.17"/>
</g>
<!-- iphones -->
<g id="node38" class="node">
<title>iphones</title>
<ellipse fill="#f5f5f5" stroke="black" cx="2522.16" cy="-46" rx="135.41" ry="30.05"/>
<text text-anchor="middle" x="2522.16" y="-49.95" font-family="Times,serif" font-size="14.00">iPhones (×3)</text>
<text text-anchor="middle" x="2522.16" y="-32.7" font-family="Times,serif" font-size="14.00">192.168.5.128/.135/.136</text>
</g>
<!-- u7proxgs&#45;&gt;iphones -->
<g id="edge38" class="edge">
<title>u7proxgs&#45;&gt;iphones</title>
<path fill="none" stroke="gray" stroke-dasharray="1,5" d="M2195.73,-1016.2C2208.12,-1008.12 2217.5,-1002 2217.5,-1002 2217.5,-1002 2239.5,-163 2239.5,-163 2239.5,-163 2378.75,-90 2378.75,-90 2378.75,-90 2402.54,-82.65 2430.67,-73.96"/>
<polygon fill="gray" stroke="gray" points="2431.66,-77.32 2440.18,-71.02 2429.59,-70.63 2431.66,-77.32"/>
</g>
<!-- legend_wan -->
<g id="node40" class="node">
<title>legend_wan</title>
<polygon fill="#ffcc80" stroke="black" points="135.12,-1011 45.62,-1011 45.62,-975 135.12,-975 135.12,-1011"/>
<text text-anchor="middle" x="90.38" y="-988.33" font-family="Times,serif" font-size="14.00">WAN / ISP</text>
</g>
<!-- legend_router -->
<g id="node41" class="node">
<title>legend_router</title>
<polygon fill="#bbdefb" stroke="black" points="126.38,-1076 54.38,-1076 54.38,-1040 126.38,-1040 126.38,-1076"/>
<text text-anchor="middle" x="90.38" y="-1053.33" font-family="Times,serif" font-size="14.00">Router</text>
</g>
<!-- legend_switch -->
<g id="node42" class="node">
<title>legend_switch</title>
<polygon fill="#fff9c4" stroke="black" points="126.38,-1141 54.38,-1141 54.38,-1105 126.38,-1105 126.38,-1141"/>
<text text-anchor="middle" x="90.38" y="-1118.33" font-family="Times,serif" font-size="14.00">Switch</text>
</g>
<!-- legend_server -->
<g id="node43" class="node">
<title>legend_server</title>
<polygon fill="#c8e6c9" stroke="black" points="126.38,-1206 54.38,-1206 54.38,-1170 126.38,-1170 126.38,-1206"/>
<text text-anchor="middle" x="90.38" y="-1183.33" font-family="Times,serif" font-size="14.00">Server</text>
</g>
<!-- legend_iot -->
<g id="node44" class="node">
<title>legend_iot</title>
<polygon fill="#e1bee7" stroke="black" points="164.75,-1271 16,-1271 16,-1235 164.75,-1235 164.75,-1271"/>
<text text-anchor="middle" x="90.38" y="-1248.33" font-family="Times,serif" font-size="14.00">IoT / KVM / Mobile</text>
</g>
<!-- legend_cam -->
<g id="node45" class="node">
<title>legend_cam</title>
<polygon fill="#ffcdd2" stroke="black" points="149,-1336 31.75,-1336 31.75,-1300 149,-1300 149,-1336"/>
<text text-anchor="middle" x="90.38" y="-1313.33" font-family="Times,serif" font-size="14.00">Camera / NVR</text>
</g>
<!-- legend_ap -->
<g id="node46" class="node">
<title>legend_ap</title>
<polygon fill="#d7ccc8" stroke="black" points="143,-1401 37.75,-1401 37.75,-1365 143,-1365 143,-1401"/>
<text text-anchor="middle" x="90.38" y="-1378.33" font-family="Times,serif" font-size="14.00">Access Point</text>
</g>
</g>
</svg>
