<?xml version="1.0" encoding="UTF-8" standalone="no"?>
<!DOCTYPE svg PUBLIC "-//W3C//DTD SVG 1.1//EN"
 "http://www.w3.org/Graphics/SVG/1.1/DTD/svg11.dtd">
<!-- Generated by graphviz version 12.2.1 (0)
 -->
<!-- Title: G Pages: 1 -->
<svg width="3044pt" height="1820pt"
 viewBox="0.00 0.00 3044.32 1819.75" xmlns="http://www.w3.org/2000/svg" xmlns:xlink="http://www.w3.org/1999/xlink">
<g id="graph0" class="graph" transform="scale(1 1) rotate(0) translate(4 1815.75)">
<title>G</title>
<polygon fill="white" stroke="none" points="-4,4 -4,-1815.75 3040.32,-1815.75 3040.32,4 -4,4"/>
<g id="clust1" class="cluster">
<title>cluster_iot</title>
<polygon fill="white" stroke="gray" stroke-dasharray="5,2" points="2569.54,-506.88 2569.54,-1106.88 2719.29,-1106.88 2719.29,-506.88 2569.54,-506.88"/>
<text text-anchor="middle" x="2644.41" y="-1093.38" font-family="Helvetica,sans-Serif" font-size="10.00">IoT / Smart Home (WiFi)</text>
</g>
<g id="clust2" class="cluster">
<title>cluster_transient</title>
<polygon fill="white" stroke="gray" stroke-dasharray="5,2" points="2501,-186.88 2501,-498.88 2787.82,-498.88 2787.82,-186.88 2501,-186.88"/>
<text text-anchor="middle" x="2644.41" y="-485.38" font-family="Helvetica,sans-Serif" font-size="10.00">Transient / Mobile (WiFi, rotating MACs)</text>
</g>
<g id="clust3" class="cluster">
<title>cluster_legend</title>
<polygon fill="white" stroke="gray" stroke-dasharray="5,2" points="8,-351.88 8,-814.88 172.75,-814.88 172.75,-351.88 8,-351.88"/>
<text text-anchor="middle" x="90.38" y="-801.38" font-family="Helvetica,sans-Serif" font-size="10.00">Legend</text>
</g>
<!-- internet -->
<g id="node1" class="node">
<title>internet</title>
<ellipse fill="#e0e0e0" stroke="black" cx="90.38" cy="-225.88" rx="52.26" ry="18"/>
<ellipse fill="none" stroke="black" cx="90.38" cy="-225.88" rx="56.26" ry="22"/>
<text text-anchor="middle" x="90.38" y="-221.2" font-family="Times,serif" font-size="14.00">Internet</text>
</g>
<!-- verizon -->
<g id="node2" class="node">
<title>verizon</title>
<polygon fill="#ffcc80" stroke="black" points="452,-247.12 310.75,-247.12 310.75,-204.62 452,-204.62 452,-247.12"/>
<text text-anchor="middle" x="381.38" y="-229.82" font-family="Times,serif" font-size="14.00">Verizon CR1000B</text>
<text text-anchor="middle" x="381.38" y="-212.57" font-family="Times,serif" font-size="14.00">192.168.0.1</text>
</g>
<!-- internet&#45;&gt;verizon -->
<g id="edge1" class="edge">
<title>internet&#45;&gt;verizon</title>
<path fill="none" stroke="black" d="M147.1,-225.88C190.22,-225.88 250.57,-225.88 299.08,-225.88"/>
<polygon fill="black" stroke="black" points="298.99,-229.38 308.99,-225.88 298.99,-222.38 298.99,-229.38"/>
<text text-anchor="middle" x="237.75" y="-229.82" font-family="Times,serif" font-size="14.00"> Coax ~1Gbps</text>
</g>
<!-- homepi -->
<g id="node3" class="node">
<title>homepi</title>
<polygon fill="#c8e6c9" stroke="black" points="759.88,-300.75 614.12,-300.75 614.12,-241 759.88,-241 759.88,-300.75"/>
<text text-anchor="middle" x="687" y="-283.45" font-family="Times,serif" font-size="14.00">home&#45;pi</text>
<text text-anchor="middle" x="687" y="-266.2" font-family="Times,serif" font-size="14.00">Headscale / PDNS</text>
<text text-anchor="middle" x="687" y="-248.95" font-family="Times,serif" font-size="14.00">192.168.0.154</text>
</g>
<!-- verizon&#45;&gt;homepi -->
<g id="edge2" class="edge">
<title>verizon&#45;&gt;homepi</title>
<path fill="none" stroke="black" d="M452.41,-236.26C497.16,-242.89 555.42,-251.52 602.56,-258.51"/>
<polygon fill="black" stroke="black" points="601.77,-261.93 612.18,-259.93 602.8,-255.01 601.77,-261.93"/>
<text text-anchor="middle" x="531.38" y="-260.27" font-family="Times,serif" font-size="14.00"> 1GbE | :6767</text>
</g>
<!-- router -->
<g id="node4" class="node">
<title>router</title>
<polygon fill="#bbdefb" stroke="black" points="763.25,-211.75 610.75,-211.75 610.75,-152 763.25,-152 763.25,-211.75"/>
<text text-anchor="middle" x="687" y="-194.45" font-family="Times,serif" font-size="14.00">ROUTER</text>
<text text-anchor="middle" x="687" y="-177.2" font-family="Times,serif" font-size="14.00">RB5009UPr+S+IN</text>
<text text-anchor="middle" x="687" y="-159.95" font-family="Times,serif" font-size="14.00">192.168.1.1 / .5.1</text>
</g>
<!-- verizon&#45;&gt;router -->
<g id="edge3" class="edge">
<title>verizon&#45;&gt;router</title>
<path fill="none" stroke="black" d="M452.29,-206.42C464.83,-202.93 474,-200.38 474,-200.38 474,-200.38 540.61,-194.56 599.16,-189.45"/>
<polygon fill="black" stroke="black" points="599.2,-192.96 608.85,-188.61 598.59,-185.99 599.2,-192.96"/>
<text text-anchor="middle" x="531.38" y="-221.57" font-family="Times,serif" font-size="14.00"> 1GbE (2GWAN)</text>
<text text-anchor="middle" x="531.38" y="-204.32" font-family="Times,serif" font-size="14.00">WAN .0.2</text>
</g>
<!-- core -->
<g id="node5" class="node">
<title>core</title>
<polygon fill="#fff9c4" stroke="black" points="1242.45,-362.75 1084.05,-362.75 1084.05,-303 1242.45,-303 1242.45,-362.75"/>
<text text-anchor="middle" x="1163.25" y="-345.45" font-family="Times,serif" font-size="14.00">CORE SWITCH</text>
<text text-anchor="middle" x="1163.25" y="-328.2" font-family="Times,serif" font-size="14.00">CRS305&#45;1G&#45;4S+</text>
<text text-anchor="middle" x="1163.25" y="-310.95" font-family="Times,serif" font-size="14.00">192.168.5.4</text>
</g>
<!-- router&#45;&gt;core -->
<g id="edge4" class="edge">
<title>router&#45;&gt;core</title>
<path fill="none" stroke="black" d="M738.61,-212.14C752.22,-220.28 763.25,-226.88 763.25,-226.88 763.25,-226.88 785.25,-299.88 785.25,-299.88 785.25,-299.88 960.92,-315.25 1072.43,-325.01"/>
<polygon fill="black" stroke="black" points="1071.9,-328.48 1082.17,-325.87 1072.51,-321.51 1071.9,-328.48"/>
<text text-anchor="middle" x="922.88" y="-327.07" font-family="Times,serif" font-size="14.00"> 10G SFP+ (10GsfpLAN→sfp&#45;sfpplus4)</text>
</g>
<!-- router&#45;&gt;core -->
<g id="edge5" class="edge">
<title>router&#45;&gt;core</title>
<path fill="none" stroke="gray" stroke-dasharray="5,2" d="M738.61,-212.14C752.22,-220.28 763.25,-226.88 763.25,-226.88 763.25,-226.88 785.25,-248.88 785.25,-248.88 785.25,-248.88 1060.5,-275.62 1060.5,-275.62 1060.5,-275.62 1078.01,-285.47 1098.49,-297"/>
<polygon fill="gray" stroke="gray" points="1096.64,-299.98 1107.08,-301.83 1100.08,-293.88 1096.64,-299.98"/>
<text text-anchor="middle" x="922.88" y="-279.57" font-family="Times,serif" font-size="14.00"> 1G RJ45 (pi→ether1) mgmt</text>
</g>
<!-- vpin -->
<g id="node6" class="node">
<title>vpin</title>
<polygon fill="#c8e6c9" stroke="black" points="1223,-267.75 1103.5,-267.75 1103.5,-208 1223,-208 1223,-267.75"/>
<text text-anchor="middle" x="1163.25" y="-250.45" font-family="Times,serif" font-size="14.00">vpin</text>
<text text-anchor="middle" x="1163.25" y="-233.2" font-family="Times,serif" font-size="14.00">Mullvad exit</text>
<text text-anchor="middle" x="1163.25" y="-215.95" font-family="Times,serif" font-size="14.00">192.168.5.252</text>
</g>
<!-- router&#45;&gt;vpin -->
<g id="edge6" class="edge">
<title>router&#45;&gt;vpin</title>
<path fill="none" stroke="black" d="M763.67,-194.32C776.22,-196.39 785.25,-197.88 785.25,-197.88 785.25,-197.88 983.06,-218.86 1092.11,-230.43"/>
<polygon fill="black" stroke="black" points="1091.53,-233.89 1101.84,-231.47 1092.26,-226.93 1091.53,-233.89"/>
<text text-anchor="middle" x="922.88" y="-230.01" font-family="Times,serif" font-size="14.00"> eth3 1G</text>
</g>
<!-- jetkvm -->
<g id="node7" class="node">
<title>jetkvm</title>
<polygon fill="#e1bee7" stroke="black" points="1223,-179.12 1103.5,-179.12 1103.5,-136.62 1223,-136.62 1223,-179.12"/>
<text text-anchor="middle" x="1163.25" y="-161.82" font-family="Times,serif" font-size="14.00">JetKVM</text>
<text text-anchor="middle" x="1163.25" y="-144.57" font-family="Times,serif" font-size="14.00">192.168.5.187</text>
</g>
<!-- router&#45;&gt;jetkvm -->
<g id="edge7" class="edge">
<title>router&#45;&gt;jetkvm</title>
<path fill="none" stroke="black" d="M763.67,-178.05C854.02,-173.47 1003.92,-165.89 1091.87,-161.44"/>
<polygon fill="black" stroke="black" points="1092.01,-164.93 1101.82,-160.93 1091.65,-157.94 1092.01,-164.93"/>
<text text-anchor="middle" x="922.88" y="-180.64" font-family="Times,serif" font-size="14.00"> eth5 1G</text>
</g>
<!-- cam_driveway -->
<g id="node8" class="node">
<title>cam_driveway</title>
<polygon fill="#ffcdd2" stroke="black" points="1244,-107.12 1082.5,-107.12 1082.5,-64.62 1244,-64.62 1244,-107.12"/>
<text text-anchor="middle" x="1163.25" y="-89.83" font-family="Times,serif" font-size="14.00">Front Driveway cam</text>
<text text-anchor="middle" x="1163.25" y="-72.58" font-family="Times,serif" font-size="14.00">192.168.1.66</text>
</g>
<!-- router&#45;&gt;cam_driveway -->
<g id="edge8" class="edge">
<title>router&#45;&gt;cam_driveway</title>
<path fill="none" stroke="black" d="M756.07,-151.6C772.42,-144.33 785.25,-138.62 785.25,-138.62 785.25,-138.62 959.46,-114.25 1071.03,-98.64"/>
<polygon fill="black" stroke="black" points="1071.38,-102.12 1080.8,-97.27 1070.41,-95.19 1071.38,-102.12"/>
<text text-anchor="middle" x="922.88" y="-142.57" font-family="Times,serif" font-size="14.00"> eth6 1G</text>
</g>
<!-- upstairs_core -->
<g id="node9" class="node">
<title>upstairs_core</title>
<polygon fill="#fff9c4" stroke="black" points="1672.13,-824.75 1528.13,-824.75 1528.13,-765 1672.13,-765 1672.13,-824.75"/>
<text text-anchor="middle" x="1600.13" y="-807.45" font-family="Times,serif" font-size="14.00">UPSTAIRS&#45;CORE</text>
<text text-anchor="middle" x="1600.13" y="-790.2" font-family="Times,serif" font-size="14.00">CRS305&#45;1G&#45;4S+</text>
<text text-anchor="middle" x="1600.13" y="-772.95" font-family="Times,serif" font-size="14.00">192.168.5.5</text>
</g>
<!-- core&#45;&gt;upstairs_core -->
<g id="edge9" class="edge">
<title>core&#45;&gt;upstairs_core</title>
<path fill="none" stroke="black" d="M1192.78,-363.19C1269.21,-444.38 1478.45,-666.68 1562.99,-756.48"/>
<polygon fill="black" stroke="black" points="1560.33,-758.77 1569.73,-763.65 1565.43,-753.97 1560.33,-758.77"/>
<text text-anchor="middle" x="1381.13" y="-687.18" font-family="Times,serif" font-size="14.00"> sfp&#45;sfpplus2→2 10G SFP+</text>
</g>
<!-- office -->
<g id="node11" class="node">
<title>office</title>
<polygon fill="#fff9c4" stroke="black" points="1672.13,-362.75 1528.13,-362.75 1528.13,-303 1672.13,-303 1672.13,-362.75"/>
<text text-anchor="middle" x="1600.13" y="-345.45" font-family="Times,serif" font-size="14.00">OFFICE SWITCH</text>
<text text-anchor="middle" x="1600.13" y="-328.2" font-family="Times,serif" font-size="14.00">CRS310&#45;8G+2S+</text>
<text text-anchor="middle" x="1600.13" y="-310.95" font-family="Times,serif" font-size="14.00">192.168.5.2</text>
</g>
<!-- core&#45;&gt;office -->
<g id="edge12" class="edge">
<title>core&#45;&gt;office</title>
<path fill="none" stroke="black" d="M1242.75,-332.88C1320.05,-332.88 1437.66,-332.88 1516.39,-332.88"/>
<polygon fill="black" stroke="black" points="1516.2,-336.38 1526.2,-332.88 1516.2,-329.38 1516.2,-336.38"/>
<text text-anchor="middle" x="1381.13" y="-336.82" font-family="Times,serif" font-size="14.00"> sfp&#45;sfpplus3→ether8 10G→2.5G</text>
</g>
<!-- nas -->
<g id="node12" class="node">
<title>nas</title>
<polygon fill="#c8e6c9" stroke="black" points="1682,-274.38 1518.25,-274.38 1518.25,-197.38 1682,-197.38 1682,-274.38"/>
<text text-anchor="middle" x="1600.13" y="-257.07" font-family="Times,serif" font-size="14.00">nas</text>
<text text-anchor="middle" x="1600.13" y="-239.82" font-family="Times,serif" font-size="14.00">ZFS / k3s / Attic</text>
<text text-anchor="middle" x="1600.13" y="-222.57" font-family="Times,serif" font-size="14.00">192.168.5.175 (10G)</text>
<text text-anchor="middle" x="1600.13" y="-205.32" font-family="Times,serif" font-size="14.00">.176 (1G)</text>
</g>
<!-- core&#45;&gt;nas -->
<g id="edge11" class="edge">
<title>core&#45;&gt;nas</title>
<path fill="none" stroke="black" d="M1242.91,-314.13C1256.31,-310.93 1266,-308.62 1266,-308.62 1266,-308.62 1408.28,-277.55 1506.87,-256.02"/>
<polygon fill="black" stroke="black" points="1507.56,-259.45 1516.58,-253.9 1506.06,-252.62 1507.56,-259.45"/>
<text text-anchor="middle" x="1381.13" y="-312.57" font-family="Times,serif" font-size="14.00"> sfp&#45;sfpplus1 10G SFP+</text>
</g>
<!-- upstairs -->
<g id="node10" class="node">
<title>upstairs</title>
<polygon fill="#fff9c4" stroke="black" points="2163.5,-1577.75 2007.25,-1577.75 2007.25,-1518 2163.5,-1518 2163.5,-1577.75"/>
<text text-anchor="middle" x="2085.38" y="-1560.45" font-family="Times,serif" font-size="14.00">UPSTAIRS SWITCH</text>
<text text-anchor="middle" x="2085.38" y="-1543.2" font-family="Times,serif" font-size="14.00">CRS310&#45;8G+2S+</text>
<text text-anchor="middle" x="2085.38" y="-1525.95" font-family="Times,serif" font-size="14.00">192.168.5.3</text>
</g>
<!-- upstairs_core&#45;&gt;upstairs -->
<g id="edge10" class="edge">
<title>upstairs_core&#45;&gt;upstairs</title>
<path fill="none" stroke="black" d="M1620.37,-824.86C1696.06,-942.81 1973.38,-1374.92 2059.02,-1508.36"/>
<polygon fill="black" stroke="black" points="2055.91,-1510.01 2064.26,-1516.53 2061.8,-1506.23 2055.91,-1510.01"/>
<text text-anchor="middle" x="1839" y="-1369.85" font-family="Times,serif" font-size="14.00"> sfp&#45;sfpplus4→sfp&#45;sfpplus1 10G SFP+</text>
</g>
<!-- closet -->
<g id="node13" class="node">
<title>closet</title>
<polygon fill="#c8e6c9" stroke="black" points="2726.66,-1811.75 2562.16,-1811.75 2562.16,-1752 2726.66,-1752 2726.66,-1811.75"/>
<text text-anchor="middle" x="2644.41" y="-1794.45" font-family="Times,serif" font-size="14.00">closet</text>
<text text-anchor="middle" x="2644.41" y="-1777.2" font-family="Times,serif" font-size="14.00">k3s / Unifi / Postgres</text>
<text text-anchor="middle" x="2644.41" y="-1759.95" font-family="Times,serif" font-size="14.00">192.168.5.35</text>
</g>
<!-- upstairs&#45;&gt;closet -->
<g id="edge13" class="edge">
<title>upstairs&#45;&gt;closet</title>
<path fill="none" stroke="black" d="M2111.7,-1577.93C2144.28,-1616.6 2196.75,-1678.88 2196.75,-1678.88 2196.75,-1678.88 2419.67,-1730.28 2550.55,-1760.46"/>
<polygon fill="black" stroke="black" points="2549.74,-1763.87 2560.27,-1762.7 2551.31,-1757.05 2549.74,-1763.87"/>
<text text-anchor="middle" x="2341.88" y="-1749.57" font-family="Times,serif" font-size="14.00"> ??? (was sfp&#45;sfpplus1, re&#45;route pending)</text>
</g>
<!-- arch -->
<g id="node14" class="node">
<title>arch</title>
<polygon fill="#c8e6c9" stroke="black" points="2720.66,-1723.38 2568.16,-1723.38 2568.16,-1646.38 2720.66,-1646.38 2720.66,-1723.38"/>
<text text-anchor="middle" x="2644.41" y="-1706.08" font-family="Times,serif" font-size="14.00">arch</text>
<text text-anchor="middle" x="2644.41" y="-1688.83" font-family="Times,serif" font-size="14.00">k3s / GPU compute</text>
<text text-anchor="middle" x="2644.41" y="-1671.58" font-family="Times,serif" font-size="14.00">192.168.5.226</text>
<text text-anchor="middle" x="2644.41" y="-1654.33" font-family="Times,serif" font-size="14.00">(I211 1G NIC)</text>
</g>
<!-- upstairs&#45;&gt;arch -->
<g id="edge14" class="edge">
<title>upstairs&#45;&gt;arch</title>
<path fill="none" stroke="black" d="M2150.58,-1578.12C2174.86,-1589.56 2196.75,-1599.88 2196.75,-1599.88 2196.75,-1599.88 2426.92,-1643.68 2556.8,-1668.39"/>
<polygon fill="black" stroke="black" points="2555.93,-1671.79 2566.41,-1670.22 2557.24,-1664.91 2555.93,-1671.79"/>
<text text-anchor="middle" x="2341.88" y="-1658.9" font-family="Times,serif" font-size="14.00"> ether4 2.5G</text>
</g>
<!-- glkvm -->
<g id="node15" class="node">
<title>glkvm</title>
<polygon fill="#e1bee7" stroke="black" points="2695.16,-1617.75 2593.66,-1617.75 2593.66,-1558 2695.16,-1558 2695.16,-1617.75"/>
<text text-anchor="middle" x="2644.41" y="-1600.45" font-family="Times,serif" font-size="14.00">GL&#45;KVM</text>
<text text-anchor="middle" x="2644.41" y="-1583.2" font-family="Times,serif" font-size="14.00">OpenWrt</text>
<text text-anchor="middle" x="2644.41" y="-1565.95" font-family="Times,serif" font-size="14.00">192.168.5.8</text>
</g>
<!-- upstairs&#45;&gt;glkvm -->
<g id="edge15" class="edge">
<title>upstairs&#45;&gt;glkvm</title>
<path fill="none" stroke="black" d="M2163.83,-1553.44C2275.66,-1561.47 2480.09,-1576.15 2582.11,-1583.47"/>
<polygon fill="black" stroke="black" points="2581.7,-1586.95 2591.92,-1584.18 2582.2,-1579.97 2581.7,-1586.95"/>
<text text-anchor="middle" x="2341.88" y="-1580.01" font-family="Times,serif" font-size="14.00"> ether2 1G</text>
</g>
<!-- brother -->
<g id="node16" class="node">
<title>brother</title>
<polygon fill="#e1bee7" stroke="black" points="2707.54,-1529.12 2581.29,-1529.12 2581.29,-1486.62 2707.54,-1486.62 2707.54,-1529.12"/>
<text text-anchor="middle" x="2644.41" y="-1511.83" font-family="Times,serif" font-size="14.00">Brother printer</text>
<text text-anchor="middle" x="2644.41" y="-1494.58" font-family="Times,serif" font-size="14.00">192.168.5.6</text>
</g>
<!-- upstairs&#45;&gt;brother -->
<g id="edge16" class="edge">
<title>upstairs&#45;&gt;brother</title>
<path fill="none" stroke="black" d="M2163.93,-1537.16C2182.34,-1534.62 2196.75,-1532.62 2196.75,-1532.62 2196.75,-1532.62 2442.83,-1518.99 2569.68,-1511.96"/>
<polygon fill="black" stroke="black" points="2569.53,-1515.47 2579.32,-1511.43 2569.14,-1508.48 2569.53,-1515.47"/>
<text text-anchor="middle" x="2341.88" y="-1536.58" font-family="Times,serif" font-size="14.00"> ether6 100M HD</text>
</g>
<!-- nvr -->
<g id="node17" class="node">
<title>nvr</title>
<polygon fill="#ffcdd2" stroke="black" points="2699.66,-1457.75 2589.16,-1457.75 2589.16,-1398 2699.66,-1398 2699.66,-1457.75"/>
<text text-anchor="middle" x="2644.41" y="-1440.45" font-family="Times,serif" font-size="14.00">Reolink NVR</text>
<text text-anchor="middle" x="2644.41" y="-1423.2" font-family="Times,serif" font-size="14.00">(PoE switch)</text>
<text text-anchor="middle" x="2644.41" y="-1405.95" font-family="Times,serif" font-size="14.00">192.168.1.67</text>
</g>
<!-- upstairs&#45;&gt;nvr -->
<g id="edge17" class="edge">
<title>upstairs&#45;&gt;nvr</title>
<path fill="none" stroke="black" d="M2147.05,-1517.5C2172.7,-1504.66 2196.75,-1492.62 2196.75,-1492.62 2196.75,-1492.62 2453.76,-1455.37 2577.86,-1437.38"/>
<polygon fill="black" stroke="black" points="2578.2,-1440.87 2587.59,-1435.97 2577.19,-1433.94 2578.2,-1440.87"/>
<text text-anchor="middle" x="2341.88" y="-1496.58" font-family="Times,serif" font-size="14.00"> ether1 1G</text>
</g>
<!-- u7proxgs -->
<g id="node21" class="node">
<title>u7proxgs</title>
<polygon fill="#d7ccc8" stroke="black" points="2159.38,-1227.38 2011.38,-1227.38 2011.38,-1150.38 2159.38,-1150.38 2159.38,-1227.38"/>
<text text-anchor="middle" x="2085.38" y="-1210.08" font-family="Times,serif" font-size="14.00">U7 Pro XGS</text>
<text text-anchor="middle" x="2085.38" y="-1192.83" font-family="Times,serif" font-size="14.00">WiFi 7 tri&#45;band AP</text>
<text text-anchor="middle" x="2085.38" y="-1175.58" font-family="Times,serif" font-size="14.00">Office</text>
<text text-anchor="middle" x="2085.38" y="-1158.33" font-family="Times,serif" font-size="14.00">192.168.5.171</text>
</g>
<!-- office&#45;&gt;u7proxgs -->
<g id="edge20" class="edge">
<title>office&#45;&gt;u7proxgs</title>
<path fill="none" stroke="black" d="M1619.87,-363.08C1695.48,-484.9 1974,-933.62 1974,-933.62 1974,-933.62 2030.99,-1065.42 2063.07,-1139.6"/>
<polygon fill="black" stroke="black" points="2059.83,-1140.93 2067.01,-1148.72 2066.25,-1138.15 2059.83,-1140.93"/>
<text text-anchor="middle" x="1839" y="-937.58" font-family="Times,serif" font-size="14.00"> ether4 2.5G</text>
</g>
<!-- u7lite -->
<g id="node22" class="node">
<title>u7lite</title>
<polygon fill="#d7ccc8" stroke="black" points="2174.75,-186.75 1996,-186.75 1996,-127 2174.75,-127 2174.75,-186.75"/>
<text text-anchor="middle" x="2085.38" y="-169.45" font-family="Times,serif" font-size="14.00">U7 Lite</text>
<text text-anchor="middle" x="2085.38" y="-152.2" font-family="Times,serif" font-size="14.00">WiFi 7 AP (Blue Room)</text>
<text text-anchor="middle" x="2085.38" y="-134.95" font-family="Times,serif" font-size="14.00">192.168.5.173</text>
</g>
<!-- office&#45;&gt;u7lite -->
<g id="edge21" class="edge">
<title>office&#45;&gt;u7lite</title>
<path fill="none" stroke="black" d="M1672.43,-306.91C1756.74,-276.2 1897.34,-224.99 1990.46,-191.08"/>
<polygon fill="black" stroke="black" points="1991.38,-194.47 1999.58,-187.76 1988.99,-187.89 1991.38,-194.47"/>
<text text-anchor="middle" x="1839" y="-298.81" font-family="Times,serif" font-size="14.00"> 1G</text>
</g>
<!-- pite -->
<g id="node39" class="node">
<title>pite</title>
<polygon fill="#c8e6c9" stroke="black" points="2145.12,-97.75 2025.62,-97.75 2025.62,-38 2145.12,-38 2145.12,-97.75"/>
<text text-anchor="middle" x="2085.38" y="-80.45" font-family="Times,serif" font-size="14.00">pite</text>
<text text-anchor="middle" x="2085.38" y="-63.2" font-family="Times,serif" font-size="14.00">k3s canary</text>
<text text-anchor="middle" x="2085.38" y="-45.95" font-family="Times,serif" font-size="14.00">192.168.5.213</text>
</g>
<!-- office&#45;&gt;pite -->
<g id="edge39" class="edge">
<title>office&#45;&gt;pite</title>
<path fill="none" stroke="black" d="M1656.85,-302.56C1670.86,-294.93 1682,-288.88 1682,-288.88 1682,-288.88 1704,-175.62 1704,-175.62 1704,-175.62 1904.51,-118.83 2014.37,-87.7"/>
<polygon fill="black" stroke="black" points="2015.24,-91.1 2023.9,-85.01 2013.33,-84.36 2015.24,-91.1"/>
<text text-anchor="middle" x="1839" y="-179.57" font-family="Times,serif" font-size="14.00"> ether1 1G</text>
</g>
<!-- cam_gate -->
<g id="node18" class="node">
<title>cam_gate</title>
<polygon fill="#ffcdd2" stroke="black" points="3032.95,-1485.12 2905.2,-1485.12 2905.2,-1442.62 3032.95,-1442.62 3032.95,-1485.12"/>
<text text-anchor="middle" x="2969.07" y="-1467.83" font-family="Times,serif" font-size="14.00">Front Gate cam</text>
<text text-anchor="middle" x="2969.07" y="-1450.58" font-family="Times,serif" font-size="14.00">192.168.1.64</text>
</g>
<!-- nvr&#45;&gt;cam_gate -->
<g id="edge18" class="edge">
<title>nvr&#45;&gt;cam_gate</title>
<path fill="none" stroke="black" d="M2700.15,-1433.98C2753.35,-1439.92 2834.56,-1448.98 2893.62,-1455.57"/>
<polygon fill="black" stroke="black" points="2892.92,-1459.01 2903.25,-1456.64 2893.7,-1452.06 2892.92,-1459.01"/>
<text text-anchor="middle" x="2840.82" y="-1457.19" font-family="Times,serif" font-size="14.00"> PoE 100M</text>
</g>
<!-- cam_porch -->
<g id="node19" class="node">
<title>cam_porch</title>
<polygon fill="#ffcdd2" stroke="black" points="3036.32,-1413.12 2901.82,-1413.12 2901.82,-1370.62 3036.32,-1370.62 3036.32,-1413.12"/>
<text text-anchor="middle" x="2969.07" y="-1395.83" font-family="Times,serif" font-size="14.00">Front Porch cam</text>
<text text-anchor="middle" x="2969.07" y="-1378.58" font-family="Times,serif" font-size="14.00">192.168.1.63</text>
</g>
<!-- nvr&#45;&gt;cam_porch -->
<g id="edge19" class="edge">
<title>nvr&#45;&gt;cam_porch</title>
<path fill="none" stroke="black" d="M2700.15,-1421.77C2752.42,-1415.94 2831.73,-1407.09 2890.51,-1400.53"/>
<polygon fill="black" stroke="black" points="2890.55,-1404.05 2900.1,-1399.46 2889.78,-1397.09 2890.55,-1404.05"/>
<text text-anchor="middle" x="2840.82" y="-1413.83" font-family="Times,serif" font-size="14.00"> PoE 100M</text>
</g>
<!-- secu -->
<g id="node20" class="node">
<title>secu</title>
<polygon fill="#c8e6c9" stroke="black" points="2722.91,-165.38 2565.91,-165.38 2565.91,-88.38 2722.91,-88.38 2722.91,-165.38"/>
<text text-anchor="middle" x="2644.41" y="-148.07" font-family="Times,serif" font-size="14.00">secu</text>
<text text-anchor="middle" x="2644.41" y="-130.82" font-family="Times,serif" font-size="14.00">Camera NVR (SW)</text>
<text text-anchor="middle" x="2644.41" y="-113.58" font-family="Times,serif" font-size="14.00">192.168.5.140</text>
<text text-anchor="middle" x="2644.41" y="-96.33" font-family="Times,serif" font-size="14.00">(via WiFi to U7Lite)</text>
</g>
<!-- officepc -->
<g id="node23" class="node">
<title>officepc</title>
<polygon fill="#c8e6c9" stroke="black" points="2710.16,-1369.38 2578.66,-1369.38 2578.66,-1292.38 2710.16,-1292.38 2710.16,-1369.38"/>
<text text-anchor="middle" x="2644.41" y="-1352.08" font-family="Times,serif" font-size="14.00">office</text>
<text text-anchor="middle" x="2644.41" y="-1334.83" font-family="Times,serif" font-size="14.00">k3s agent / GPU</text>
<text text-anchor="middle" x="2644.41" y="-1317.58" font-family="Times,serif" font-size="14.00">192.168.5.209</text>
<text text-anchor="middle" x="2644.41" y="-1300.33" font-family="Times,serif" font-size="14.00">(via WiFi)</text>
</g>
<!-- u7proxgs&#45;&gt;officepc -->
<g id="edge22" class="edge">
<title>u7proxgs&#45;&gt;officepc</title>
<path fill="none" stroke="black" d="M2159.69,-1227.4C2180.08,-1238.11 2196.75,-1246.88 2196.75,-1246.88 2196.75,-1246.88 2439.7,-1292.56 2567.24,-1316.55"/>
<polygon fill="black" stroke="black" points="2566.5,-1319.97 2576.98,-1318.38 2567.79,-1313.09 2566.5,-1319.97"/>
<text text-anchor="middle" x="2341.88" y="-1305.26" font-family="Times,serif" font-size="14.00"> WiFi 6GHz</text>
</g>
<!-- cam_garage -->
<g id="node25" class="node">
<title>cam_garage</title>
<polygon fill="#ffcdd2" stroke="black" points="2699.66,-1263.75 2589.16,-1263.75 2589.16,-1204 2699.66,-1204 2699.66,-1263.75"/>
<text text-anchor="middle" x="2644.41" y="-1246.45" font-family="Times,serif" font-size="14.00">Garage cam</text>
<text text-anchor="middle" x="2644.41" y="-1229.2" font-family="Times,serif" font-size="14.00">192.168.1.61</text>
<text text-anchor="middle" x="2644.41" y="-1211.95" font-family="Times,serif" font-size="14.00">(WiFi)</text>
</g>
<!-- u7proxgs&#45;&gt;cam_garage -->
<g id="edge23" class="edge">
<title>u7proxgs&#45;&gt;cam_garage</title>
<path fill="none" stroke="black" stroke-dasharray="1,5" d="M2159.69,-1196.85C2180.08,-1199.06 2196.75,-1200.88 2196.75,-1200.88 2196.75,-1200.88 2453.76,-1219.86 2577.86,-1229.03"/>
<polygon fill="black" stroke="black" points="2577.35,-1232.5 2587.58,-1229.75 2577.86,-1225.52 2577.35,-1232.5"/>
<text text-anchor="middle" x="2341.88" y="-1226.21" font-family="Times,serif" font-size="14.00"> WiFi</text>
</g>
<!-- cam_side -->
<g id="node26" class="node">
<title>cam_side</title>
<polygon fill="#ffcdd2" stroke="black" points="2703.41,-1174.75 2585.41,-1174.75 2585.41,-1115 2703.41,-1115 2703.41,-1174.75"/>
<text text-anchor="middle" x="2644.41" y="-1157.45" font-family="Times,serif" font-size="14.00">Side yard cam</text>
<text text-anchor="middle" x="2644.41" y="-1140.2" font-family="Times,serif" font-size="14.00">192.168.1.65</text>
<text text-anchor="middle" x="2644.41" y="-1122.95" font-family="Times,serif" font-size="14.00">(WiFi)</text>
</g>
<!-- u7proxgs&#45;&gt;cam_side -->
<g id="edge24" class="edge">
<title>u7proxgs&#45;&gt;cam_side</title>
<path fill="none" stroke="black" stroke-dasharray="1,5" d="M2159.77,-1183.08C2267.8,-1174.54 2468.22,-1158.71 2573.95,-1150.36"/>
<polygon fill="black" stroke="black" points="2573.92,-1153.87 2583.62,-1149.6 2573.37,-1146.9 2573.92,-1153.87"/>
<text text-anchor="middle" x="2341.88" y="-1183.32" font-family="Times,serif" font-size="14.00"> WiFi</text>
</g>
<!-- iot_aidot1 -->
<g id="node27" class="node">
<title>iot_aidot1</title>
<polygon fill="#f5f5f5" stroke="black" points="2704.16,-1078.12 2584.66,-1078.12 2584.66,-1035.62 2704.16,-1035.62 2704.16,-1078.12"/>
<text text-anchor="middle" x="2644.41" y="-1060.83" font-family="Times,serif" font-size="14.00">AiDot light</text>
<text text-anchor="middle" x="2644.41" y="-1043.58" font-family="Times,serif" font-size="14.00">192.168.5.164</text>
</g>
<!-- u7proxgs&#45;&gt;iot_aidot1 -->
<g id="edge27" class="edge">
<title>u7proxgs&#45;&gt;iot_aidot1</title>
<path fill="none" stroke="gray" stroke-dasharray="1,5" d="M2159.69,-1163.63C2180.08,-1156.62 2196.75,-1150.88 2196.75,-1150.88 2196.75,-1150.88 2447.88,-1098.02 2573.53,-1071.58"/>
<polygon fill="gray" stroke="gray" points="2574.01,-1075.06 2583.08,-1069.57 2572.57,-1068.21 2574.01,-1075.06"/>
</g>
<!-- iot_aidot2 -->
<g id="node28" class="node">
<title>iot_aidot2</title>
<polygon fill="#f5f5f5" stroke="black" points="2704.16,-1006.12 2584.66,-1006.12 2584.66,-963.62 2704.16,-963.62 2704.16,-1006.12"/>
<text text-anchor="middle" x="2644.41" y="-988.83" font-family="Times,serif" font-size="14.00">AiDot light</text>
<text text-anchor="middle" x="2644.41" y="-971.58" font-family="Times,serif" font-size="14.00">192.168.5.166</text>
</g>
<!-- u7proxgs&#45;&gt;iot_aidot2 -->
<g id="edge28" class="edge">
<title>u7proxgs&#45;&gt;iot_aidot2</title>
<path fill="none" stroke="gray" stroke-dasharray="1,5" d="M2126.85,-1150.01C2158.35,-1119.75 2196.75,-1082.88 2196.75,-1082.88 2196.75,-1082.88 2487,-1039.88 2487,-1039.88 2487,-1039.88 2501,-1020.88 2501,-1020.88 2501,-1020.88 2537.24,-1011.71 2573.16,-1002.63"/>
<polygon fill="gray" stroke="gray" points="2573.95,-1006.04 2582.79,-1000.2 2572.23,-999.26 2573.95,-1006.04"/>
</g>
<!-- iot_aidot3 -->
<g id="node29" class="node">
<title>iot_aidot3</title>
<polygon fill="#f5f5f5" stroke="black" points="2704.16,-934.12 2584.66,-934.12 2584.66,-891.62 2704.16,-891.62 2704.16,-934.12"/>
<text text-anchor="middle" x="2644.41" y="-916.83" font-family="Times,serif" font-size="14.00">AiDot light</text>
<text text-anchor="middle" x="2644.41" y="-899.58" font-family="Times,serif" font-size="14.00">192.168.5.167</text>
</g>
<!-- u7proxgs&#45;&gt;iot_aidot3 -->
<g id="edge29" class="edge">
<title>u7proxgs&#45;&gt;iot_aidot3</title>
<path fill="none" stroke="gray" stroke-dasharray="1,5" d="M2115.09,-1150.12C2147.79,-1105.97 2196.75,-1039.88 2196.75,-1039.88 2196.75,-1039.88 2487,-1001.88 2487,-1001.88 2487,-1001.88 2501,-948.88 2501,-948.88 2501,-948.88 2537.24,-939.71 2573.16,-930.63"/>
<polygon fill="gray" stroke="gray" points="2573.95,-934.04 2582.79,-928.2 2572.23,-927.26 2573.95,-934.04"/>
</g>
<!-- iot_aidot4 -->
<g id="node30" class="node">
<title>iot_aidot4</title>
<polygon fill="#f5f5f5" stroke="black" points="2704.16,-862.12 2584.66,-862.12 2584.66,-819.62 2704.16,-819.62 2704.16,-862.12"/>
<text text-anchor="middle" x="2644.41" y="-844.83" font-family="Times,serif" font-size="14.00">AiDot light</text>
<text text-anchor="middle" x="2644.41" y="-827.58" font-family="Times,serif" font-size="14.00">192.168.5.168</text>
</g>
<!-- u7proxgs&#45;&gt;iot_aidot4 -->
<g id="edge30" class="edge">
<title>u7proxgs&#45;&gt;iot_aidot4</title>
<path fill="none" stroke="gray" stroke-dasharray="1,5" d="M2108.98,-1149.97C2141.27,-1094.38 2196.75,-998.88 2196.75,-998.88 2196.75,-998.88 2487,-955.88 2487,-955.88 2487,-955.88 2501,-876.88 2501,-876.88 2501,-876.88 2537.24,-867.71 2573.16,-858.63"/>
<polygon fill="gray" stroke="gray" points="2573.95,-862.04 2582.79,-856.2 2572.23,-855.26 2573.95,-862.04"/>
</g>
<!-- iot_akam1 -->
<g id="node31" class="node">
<title>iot_akam1</title>
<polygon fill="#f5f5f5" stroke="black" points="2711.29,-790.12 2577.54,-790.12 2577.54,-747.62 2711.29,-747.62 2711.29,-790.12"/>
<text text-anchor="middle" x="2644.41" y="-772.83" font-family="Times,serif" font-size="14.00">Akamatis sensor</text>
<text text-anchor="middle" x="2644.41" y="-755.58" font-family="Times,serif" font-size="14.00">192.168.5.170</text>
</g>
<!-- u7proxgs&#45;&gt;iot_akam1 -->
<g id="edge31" class="edge">
<title>u7proxgs&#45;&gt;iot_akam1</title>
<path fill="none" stroke="gray" stroke-dasharray="1,5" d="M2104.6,-1149.9C2135.95,-1082.87 2196.75,-952.88 2196.75,-952.88 2196.75,-952.88 2487,-897.88 2487,-897.88 2487,-897.88 2501,-804.88 2501,-804.88 2501,-804.88 2532.77,-796.84 2566.3,-788.37"/>
<polygon fill="gray" stroke="gray" points="2566.9,-791.83 2575.74,-785.98 2565.19,-785.04 2566.9,-791.83"/>
</g>
<!-- iot_akam2 -->
<g id="node32" class="node">
<title>iot_akam2</title>
<polygon fill="#f5f5f5" stroke="black" points="2711.29,-718.12 2577.54,-718.12 2577.54,-675.62 2711.29,-675.62 2711.29,-718.12"/>
<text text-anchor="middle" x="2644.41" y="-700.83" font-family="Times,serif" font-size="14.00">Akamatis sensor</text>
<text text-anchor="middle" x="2644.41" y="-683.58" font-family="Times,serif" font-size="14.00">192.168.5.165</text>
</g>
<!-- u7proxgs&#45;&gt;iot_akam2 -->
<g id="edge32" class="edge">
<title>u7proxgs&#45;&gt;iot_akam2</title>
<path fill="none" stroke="gray" stroke-dasharray="1,5" d="M2100.92,-1150.14C2130.89,-1070.3 2196.75,-894.88 2196.75,-894.88 2196.75,-894.88 2487,-816.88 2487,-816.88 2487,-816.88 2501,-732.88 2501,-732.88 2501,-732.88 2532.77,-724.84 2566.3,-716.37"/>
<polygon fill="gray" stroke="gray" points="2566.9,-719.83 2575.74,-713.98 2565.19,-713.04 2566.9,-719.83"/>
</g>
<!-- iot_wiz -->
<g id="node33" class="node">
<title>iot_wiz</title>
<polygon fill="#f5f5f5" stroke="black" points="2708.66,-646.12 2580.16,-646.12 2580.16,-603.62 2708.66,-603.62 2708.66,-646.12"/>
<text text-anchor="middle" x="2644.41" y="-628.83" font-family="Times,serif" font-size="14.00">WiZ smart light</text>
<text text-anchor="middle" x="2644.41" y="-611.58" font-family="Times,serif" font-size="14.00">192.168.5.132</text>
</g>
<!-- u7proxgs&#45;&gt;iot_wiz -->
<g id="edge33" class="edge">
<title>u7proxgs&#45;&gt;iot_wiz</title>
<path fill="none" stroke="gray" stroke-dasharray="1,5" d="M2097.77,-1150.16C2125.97,-1054.34 2196.75,-813.88 2196.75,-813.88 2196.75,-813.88 2487,-689.88 2487,-689.88 2487,-689.88 2501,-660.88 2501,-660.88 2501,-660.88 2534.21,-652.48 2568.55,-643.8"/>
<polygon fill="gray" stroke="gray" points="2569.4,-647.19 2578.24,-641.35 2567.68,-640.41 2569.4,-647.19"/>
</g>
<!-- iot_switch -->
<g id="node34" class="node">
<title>iot_switch</title>
<polygon fill="#f5f5f5" stroke="black" points="2704.16,-574.75 2584.66,-574.75 2584.66,-515 2704.16,-515 2704.16,-574.75"/>
<text text-anchor="middle" x="2644.41" y="-557.45" font-family="Times,serif" font-size="14.00">John Bedroom</text>
<text text-anchor="middle" x="2644.41" y="-540.2" font-family="Times,serif" font-size="14.00">Lightswitch</text>
<text text-anchor="middle" x="2644.41" y="-522.95" font-family="Times,serif" font-size="14.00">192.168.5.172</text>
</g>
<!-- u7proxgs&#45;&gt;iot_switch -->
<g id="edge34" class="edge">
<title>u7proxgs&#45;&gt;iot_switch</title>
<path fill="none" stroke="gray" stroke-dasharray="1,5" d="M2094.94,-1149.9C2120.88,-1031.95 2196.75,-686.88 2196.75,-686.88 2196.75,-686.88 2501,-588.88 2501,-588.88 2501,-588.88 2537.55,-577.58 2573.62,-566.44"/>
<polygon fill="gray" stroke="gray" points="2574.29,-569.9 2582.81,-563.6 2572.22,-563.21 2574.29,-569.9"/>
</g>
<!-- peloton -->
<g id="node35" class="node">
<title>peloton</title>
<polygon fill="#f5f5f5" stroke="black" points="2704.16,-470.12 2584.66,-470.12 2584.66,-427.62 2704.16,-427.62 2704.16,-470.12"/>
<text text-anchor="middle" x="2644.41" y="-452.82" font-family="Times,serif" font-size="14.00">Peloton</text>
<text text-anchor="middle" x="2644.41" y="-435.57" font-family="Times,serif" font-size="14.00">192.168.5.146</text>
</g>
<!-- u7proxgs&#45;&gt;peloton -->
<g id="edge35" class="edge">
<title>u7proxgs&#45;&gt;peloton</title>
<path fill="none" stroke="gray" stroke-dasharray="1,5" d="M2093.45,-1150.3C2117.81,-1017.43 2196.75,-586.88 2196.75,-586.88 2196.75,-586.88 2448.39,-509.13 2573.91,-470.35"/>
<polygon fill="gray" stroke="gray" points="2574.59,-473.8 2583.11,-467.5 2572.52,-467.11 2574.59,-473.8"/>
</g>
<!-- pop_os -->
<g id="node36" class="node">
<title>pop_os</title>
<polygon fill="#f5f5f5" stroke="black" points="2707.16,-398.12 2581.66,-398.12 2581.66,-355.62 2707.16,-355.62 2707.16,-398.12"/>
<text text-anchor="middle" x="2644.41" y="-380.82" font-family="Times,serif" font-size="14.00">Pop!_OS laptop</text>
<text text-anchor="middle" x="2644.41" y="-363.57" font-family="Times,serif" font-size="14.00">192.168.5.221</text>
</g>
<!-- u7proxgs&#45;&gt;pop_os -->
<g id="edge36" class="edge">
<title>u7proxgs&#45;&gt;pop_os</title>
<path fill="none" stroke="gray" stroke-dasharray="1,5" d="M2092.51,-1150.1C2115.7,-1003.44 2196.75,-490.88 2196.75,-490.88 2196.75,-490.88 2501,-412.88 2501,-412.88 2501,-412.88 2535.48,-404.16 2570.51,-395.3"/>
<polygon fill="gray" stroke="gray" points="2571.06,-398.78 2579.89,-392.93 2569.34,-391.99 2571.06,-398.78"/>
</g>
<!-- macbook -->
<g id="node37" class="node">
<title>macbook</title>
<polygon fill="#f5f5f5" stroke="black" points="2704.16,-326.12 2584.66,-326.12 2584.66,-283.62 2704.16,-283.62 2704.16,-326.12"/>
<text text-anchor="middle" x="2644.41" y="-308.82" font-family="Times,serif" font-size="14.00">Mac laptop</text>
<text text-anchor="middle" x="2644.41" y="-291.57" font-family="Times,serif" font-size="14.00">192.168.5.130</text>
</g>
<!-- u7proxgs&#45;&gt;macbook -->
<g id="edge37" class="edge">
<title>u7proxgs&#45;&gt;macbook</title>
<path fill="none" stroke="gray" stroke-dasharray="1,5" d="M2091.89,-1149.98C2114.21,-992.4 2196.75,-409.88 2196.75,-409.88 2196.75,-409.88 2447.88,-350.84 2573.53,-321.3"/>
<polygon fill="gray" stroke="gray" points="2574.15,-324.75 2583.09,-319.06 2572.55,-317.94 2574.15,-324.75"/>
</g>
<!-- iphones -->
<g id="node38" class="node">
<title>iphones</title>
<ellipse fill="#f5f5f5" stroke="black" cx="2644.41" cy="-224.88" rx="135.41" ry="30.05"/>
<text text-anchor="middle" x="2644.41" y="-228.82" font-family="Times,serif" font-size="14.00">iPhones (×3)</text>
<text text-anchor="middle" x="2644.41" y="-211.57" font-family="Times,serif" font-size="14.00">192.168.5.128/.135/.136</text>
</g>
<!-- u7proxgs&#45;&gt;iphones -->
<g id="edge38" class="edge">
<title>u7proxgs&#45;&gt;iphones</title>
<path fill="none" stroke="gray" stroke-dasharray="1,5" d="M2091.4,-1149.96C2113,-982.89 2196.75,-334.88 2196.75,-334.88 2196.75,-334.88 2409.74,-282.42 2541.57,-249.96"/>
<polygon fill="gray" stroke="gray" points="2542.14,-253.42 2551.01,-247.63 2540.47,-246.62 2542.14,-253.42"/>
</g>
<!-- u7lite&#45;&gt;secu -->
<g id="edge26" class="edge">
<title>u7lite&#45;&gt;secu</title>
<path fill="none" stroke="black" stroke-dasharray="1,5" d="M2174.95,-152.1C2278.8,-146.51 2449.95,-137.29 2554.11,-131.68"/>
<polygon fill="black" stroke="black" points="2554.23,-135.18 2564.03,-131.15 2553.85,-128.19 2554.23,-135.18"/>
<text text-anchor="middle" x="2341.88" y="-154.34" font-family="Times,serif" font-size="14.00"> WiFi</text>
</g>
<!-- cam_back -->
<g id="node24" class="node">
<title>cam_back</title>
<polygon fill="#ffcdd2" stroke="black" points="2704.91,-59.75 2583.91,-59.75 2583.91,0 2704.91,0 2704.91,-59.75"/>
<text text-anchor="middle" x="2644.41" y="-42.45" font-family="Times,serif" font-size="14.00">Back yard cam</text>
<text text-anchor="middle" x="2644.41" y="-25.2" font-family="Times,serif" font-size="14.00">192.168.1.60</text>
<text text-anchor="middle" x="2644.41" y="-7.95" font-family="Times,serif" font-size="14.00">(WiFi)</text>
</g>
<!-- u7lite&#45;&gt;cam_back -->
<g id="edge25" class="edge">
<title>u7lite&#45;&gt;cam_back</title>
<path fill="none" stroke="black" stroke-dasharray="1,5" d="M2160.3,-126.57C2180.41,-118.32 2196.75,-111.62 2196.75,-111.62 2196.75,-111.62 2446.61,-65.89 2572.58,-42.84"/>
<polygon fill="black" stroke="black" points="2572.94,-46.33 2582.15,-41.09 2571.68,-39.45 2572.94,-46.33"/>
<text text-anchor="middle" x="2341.88" y="-115.58" font-family="Times,serif" font-size="14.00"> WiFi</text>
</g>
<!-- legend_wan -->
<g id="node40" class="node">
<title>legend_wan</title>
<polygon fill="#ffcc80" stroke="black" points="135.12,-395.88 45.62,-395.88 45.62,-359.88 135.12,-359.88 135.12,-395.88"/>
<text text-anchor="middle" x="90.38" y="-373.2" font-family="Times,serif" font-size="14.00">WAN / ISP</text>
</g>
<!-- legend_router -->
<g id="node41" class="node">
<title>legend_router</title>
<polygon fill="#bbdefb" stroke="black" points="126.38,-460.88 54.38,-460.88 54.38,-424.88 126.38,-424.88 126.38,-460.88"/>
<text text-anchor="middle" x="90.38" y="-438.2" font-family="Times,serif" font-size="14.00">Router</text>
</g>
<!-- legend_switch -->
<g id="node42" class="node">
<title>legend_switch</title>
<polygon fill="#fff9c4" stroke="black" points="126.38,-525.88 54.38,-525.88 54.38,-489.88 126.38,-489.88 126.38,-525.88"/>
<text text-anchor="middle" x="90.38" y="-503.2" font-family="Times,serif" font-size="14.00">Switch</text>
</g>
<!-- legend_server -->
<g id="node43" class="node">
<title>legend_server</title>
<polygon fill="#c8e6c9" stroke="black" points="126.38,-590.88 54.38,-590.88 54.38,-554.88 126.38,-554.88 126.38,-590.88"/>
<text text-anchor="middle" x="90.38" y="-568.2" font-family="Times,serif" font-size="14.00">Server</text>
</g>
<!-- legend_iot -->
<g id="node44" class="node">
<title>legend_iot</title>
<polygon fill="#e1bee7" stroke="black" points="164.75,-655.88 16,-655.88 16,-619.88 164.75,-619.88 164.75,-655.88"/>
<text text-anchor="middle" x="90.38" y="-633.2" font-family="Times,serif" font-size="14.00">IoT / KVM / Mobile</text>
</g>
<!-- legend_cam -->
<g id="node45" class="node">
<title>legend_cam</title>
<polygon fill="#ffcdd2" stroke="black" points="149,-720.88 31.75,-720.88 31.75,-684.88 149,-684.88 149,-720.88"/>
<text text-anchor="middle" x="90.38" y="-698.2" font-family="Times,serif" font-size="14.00">Camera / NVR</text>
</g>
<!-- legend_ap -->
<g id="node46" class="node">
<title>legend_ap</title>
<polygon fill="#d7ccc8" stroke="black" points="143,-785.88 37.75,-785.88 37.75,-749.88 143,-749.88 143,-785.88"/>
<text text-anchor="middle" x="90.38" y="-763.2" font-family="Times,serif" font-size="14.00">Access Point</text>
</g>
</g>
</svg>
