<?xml version="1.0" encoding="UTF-8" standalone="no"?>
<!DOCTYPE svg PUBLIC "-//W3C//DTD SVG 1.1//EN"
 "http://www.w3.org/Graphics/SVG/1.1/DTD/svg11.dtd">
<!-- Generated by graphviz version 12.2.1 (0)
 -->
<!-- Title: G Pages: 1 -->
<svg width="2492pt" height="1079pt"
 viewBox="0.00 0.00 2491.68 1078.75" xmlns="http://www.w3.org/2000/svg" xmlns:xlink="http://www.w3.org/1999/xlink">
<g id="graph0" class="graph" transform="scale(1 1) rotate(0) translate(4 1074.75)">
<title>G</title>
<polygon fill="white" stroke="none" points="-4,4 -4,-1074.75 2487.68,-1074.75 2487.68,4 -4,4"/>
<g id="clust1" class="cluster">
<title>cluster_legend</title>
<polygon fill="white" stroke="gray" stroke-dasharray="5,2" points="8,-338.88 8,-801.88 129.25,-801.88 129.25,-338.88 8,-338.88"/>
<text text-anchor="middle" x="68.62" y="-788.38" font-family="Helvetica,sans-Serif" font-size="10.00">Legend</text>
</g>
<!-- internet -->
<g id="node1" class="node">
<title>internet</title>
<ellipse fill="#e0e0e0" stroke="black" cx="68.62" cy="-295.88" rx="52.26" ry="18"/>
<ellipse fill="none" stroke="black" cx="68.62" cy="-295.88" rx="56.26" ry="22"/>
<text text-anchor="middle" x="68.62" y="-291.2" font-family="Times,serif" font-size="14.00">Internet</text>
</g>
<!-- verizon -->
<g id="node2" class="node">
<title>verizon</title>
<polygon fill="#ffcc80" stroke="black" points="412.14,-317.12 270.89,-317.12 270.89,-274.62 412.14,-274.62 412.14,-317.12"/>
<text text-anchor="middle" x="341.51" y="-299.82" font-family="Times,serif" font-size="14.00">Verizon CR1000B</text>
<text text-anchor="middle" x="341.51" y="-282.57" font-family="Times,serif" font-size="14.00">192.168.0.1</text>
</g>
<!-- internet&#45;&gt;verizon -->
<g id="edge1" class="edge">
<title>internet&#45;&gt;verizon</title>
<path fill="none" stroke="black" d="M125.1,-295.88C163.67,-295.88 215.74,-295.88 259.01,-295.88"/>
<polygon fill="black" stroke="black" points="258.88,-299.38 268.88,-295.88 258.88,-292.38 258.88,-299.38"/>
<text text-anchor="middle" x="197.89" y="-299.82" font-family="Times,serif" font-size="14.00"> Coax ~1Gbps</text>
</g>
<!-- homepi -->
<g id="node3" class="node">
<title>homepi</title>
<polygon fill="#c8e6c9" stroke="black" points="720.01,-370.75 574.26,-370.75 574.26,-311 720.01,-311 720.01,-370.75"/>
<text text-anchor="middle" x="647.14" y="-353.45" font-family="Times,serif" font-size="14.00">home&#45;pi</text>
<text text-anchor="middle" x="647.14" y="-336.2" font-family="Times,serif" font-size="14.00">Headscale / PDNS</text>
<text text-anchor="middle" x="647.14" y="-318.95" font-family="Times,serif" font-size="14.00">192.168.0.154</text>
</g>
<!-- verizon&#45;&gt;homepi -->
<g id="edge2" class="edge">
<title>verizon&#45;&gt;homepi</title>
<path fill="none" stroke="black" d="M412.55,-306.26C457.3,-312.89 515.56,-321.52 562.7,-328.51"/>
<polygon fill="black" stroke="black" points="561.91,-331.93 572.31,-329.93 562.93,-325.01 561.91,-331.93"/>
<text text-anchor="middle" x="491.51" y="-330.27" font-family="Times,serif" font-size="14.00"> 1GbE | :6767</text>
</g>
<!-- router -->
<g id="node4" class="node">
<title>router</title>
<polygon fill="#bbdefb" stroke="black" points="723.39,-281.75 570.89,-281.75 570.89,-222 723.39,-222 723.39,-281.75"/>
<text text-anchor="middle" x="647.14" y="-264.45" font-family="Times,serif" font-size="14.00">ROUTER</text>
<text text-anchor="middle" x="647.14" y="-247.2" font-family="Times,serif" font-size="14.00">RB5009UPr+S+IN</text>
<text text-anchor="middle" x="647.14" y="-229.95" font-family="Times,serif" font-size="14.00">192.168.1.1 / .5.1</text>
</g>
<!-- verizon&#45;&gt;router -->
<g id="edge3" class="edge">
<title>verizon&#45;&gt;router</title>
<path fill="none" stroke="black" d="M412.42,-276.42C424.96,-272.93 434.14,-270.38 434.14,-270.38 434.14,-270.38 500.75,-264.56 559.3,-259.45"/>
<polygon fill="black" stroke="black" points="559.33,-262.96 568.99,-258.61 558.72,-255.99 559.33,-262.96"/>
<text text-anchor="middle" x="491.51" y="-291.57" font-family="Times,serif" font-size="14.00"> 1GbE (2GWAN)</text>
<text text-anchor="middle" x="491.51" y="-274.32" font-family="Times,serif" font-size="14.00">WAN .0.2</text>
</g>
<!-- core -->
<g id="node5" class="node">
<title>core</title>
<polygon fill="#fff9c4" stroke="black" points="1202.59,-423.75 1044.19,-423.75 1044.19,-364 1202.59,-364 1202.59,-423.75"/>
<text text-anchor="middle" x="1123.39" y="-406.45" font-family="Times,serif" font-size="14.00">CORE SWITCH</text>
<text text-anchor="middle" x="1123.39" y="-389.2" font-family="Times,serif" font-size="14.00">CRS305&#45;1G&#45;4S+IN</text>
<text text-anchor="middle" x="1123.39" y="-371.95" font-family="Times,serif" font-size="14.00">192.168.5.4</text>
</g>
<!-- router&#45;&gt;core -->
<g id="edge4" class="edge">
<title>router&#45;&gt;core</title>
<path fill="none" stroke="black" d="M698.75,-282.14C712.36,-290.28 723.39,-296.88 723.39,-296.88 723.39,-296.88 745.39,-360.88 745.39,-360.88 745.39,-360.88 921.05,-376.25 1032.56,-386.01"/>
<polygon fill="black" stroke="black" points="1032.04,-389.48 1042.3,-386.87 1032.65,-382.51 1032.04,-389.48"/>
<text text-anchor="middle" x="883.01" y="-388.07" font-family="Times,serif" font-size="14.00"> 10G SFP+ (10GsfpLAN→sfp&#45;sfpplus1)</text>
</g>
<!-- router&#45;&gt;core -->
<g id="edge5" class="edge">
<title>router&#45;&gt;core</title>
<path fill="none" stroke="gray" stroke-dasharray="5,2" d="M699.04,-282.23C722.57,-296.27 745.39,-309.88 745.39,-309.88 745.39,-309.88 1020.64,-336.62 1020.64,-336.62 1020.64,-336.62 1038.14,-346.47 1058.63,-358"/>
<polygon fill="gray" stroke="gray" points="1056.78,-360.98 1067.21,-362.83 1060.21,-354.88 1056.78,-360.98"/>
<text text-anchor="middle" x="883.01" y="-340.57" font-family="Times,serif" font-size="14.00"> 1G RJ45 (pi→ether1) mgmt</text>
</g>
<!-- vpin -->
<g id="node6" class="node">
<title>vpin</title>
<polygon fill="#c8e6c9" stroke="black" points="1183.14,-328.75 1063.64,-328.75 1063.64,-269 1183.14,-269 1183.14,-328.75"/>
<text text-anchor="middle" x="1123.39" y="-311.45" font-family="Times,serif" font-size="14.00">vpin</text>
<text text-anchor="middle" x="1123.39" y="-294.2" font-family="Times,serif" font-size="14.00">Mullvad exit</text>
<text text-anchor="middle" x="1123.39" y="-276.95" font-family="Times,serif" font-size="14.00">192.168.5.252</text>
</g>
<!-- router&#45;&gt;vpin -->
<g id="edge6" class="edge">
<title>router&#45;&gt;vpin</title>
<path fill="none" stroke="black" d="M723.81,-259.37C814.25,-268.34 964.36,-283.21 1052.27,-291.93"/>
<polygon fill="black" stroke="black" points="1051.66,-295.38 1061.96,-292.89 1052.35,-288.42 1051.66,-295.38"/>
<text text-anchor="middle" x="883.01" y="-292.67" font-family="Times,serif" font-size="14.00"> eth3 1G</text>
</g>
<!-- jetkvm -->
<g id="node7" class="node">
<title>jetkvm</title>
<polygon fill="#e1bee7" stroke="black" points="1183.14,-240.12 1063.64,-240.12 1063.64,-197.62 1183.14,-197.62 1183.14,-240.12"/>
<text text-anchor="middle" x="1123.39" y="-222.82" font-family="Times,serif" font-size="14.00">JetKVM</text>
<text text-anchor="middle" x="1123.39" y="-205.57" font-family="Times,serif" font-size="14.00">192.168.5.187</text>
</g>
<!-- router&#45;&gt;jetkvm -->
<g id="edge7" class="edge">
<title>router&#45;&gt;jetkvm</title>
<path fill="none" stroke="black" d="M723.8,-241.57C736.36,-239.86 745.39,-238.62 745.39,-238.62 745.39,-238.62 943.2,-228.26 1052.25,-222.55"/>
<polygon fill="black" stroke="black" points="1052.16,-226.06 1061.97,-222.04 1051.8,-219.07 1052.16,-226.06"/>
<text text-anchor="middle" x="883.01" y="-242.57" font-family="Times,serif" font-size="14.00"> eth5 1G</text>
</g>
<!-- cam_driveway -->
<g id="node8" class="node">
<title>cam_driveway</title>
<polygon fill="#ffcdd2" stroke="black" points="1204.14,-168.12 1042.64,-168.12 1042.64,-125.62 1204.14,-125.62 1204.14,-168.12"/>
<text text-anchor="middle" x="1123.39" y="-150.82" font-family="Times,serif" font-size="14.00">Front Driveway cam</text>
<text text-anchor="middle" x="1123.39" y="-133.57" font-family="Times,serif" font-size="14.00">192.168.1.66</text>
</g>
<!-- router&#45;&gt;cam_driveway -->
<g id="edge8" class="edge">
<title>router&#45;&gt;cam_driveway</title>
<path fill="none" stroke="black" d="M705.55,-221.62C726.6,-210.52 745.39,-200.62 745.39,-200.62 745.39,-200.62 919.6,-175.79 1031.17,-159.88"/>
<polygon fill="black" stroke="black" points="1031.53,-163.36 1040.93,-158.49 1030.54,-156.43 1031.53,-163.36"/>
<text text-anchor="middle" x="883.01" y="-204.57" font-family="Times,serif" font-size="14.00"> eth6 1G</text>
</g>
<!-- upstairs -->
<g id="node9" class="node">
<title>upstairs</title>
<polygon fill="#fff9c4" stroke="black" points="1639.51,-836.75 1481.01,-836.75 1481.01,-777 1639.51,-777 1639.51,-836.75"/>
<text text-anchor="middle" x="1560.26" y="-819.45" font-family="Times,serif" font-size="14.00">UPSTAIRS SWITCH</text>
<text text-anchor="middle" x="1560.26" y="-802.2" font-family="Times,serif" font-size="14.00">CRS310&#45;8G+2S+IN</text>
<text text-anchor="middle" x="1560.26" y="-784.95" font-family="Times,serif" font-size="14.00">192.168.5.3</text>
</g>
<!-- core&#45;&gt;upstairs -->
<g id="edge9" class="edge">
<title>core&#45;&gt;upstairs</title>
<path fill="none" stroke="black" d="M1156.36,-424.24C1234.29,-498.25 1433.85,-687.77 1519.37,-769"/>
<polygon fill="black" stroke="black" points="1516.77,-771.35 1526.43,-775.7 1521.59,-766.27 1516.77,-771.35"/>
<text text-anchor="middle" x="1341.26" y="-711.02" font-family="Times,serif" font-size="14.00"> sfp&#45;sfpplus3→2 10G SFP+</text>
</g>
<!-- office -->
<g id="node10" class="node">
<title>office</title>
<polygon fill="#fff9c4" stroke="black" points="1639.51,-423.75 1481.01,-423.75 1481.01,-364 1639.51,-364 1639.51,-423.75"/>
<text text-anchor="middle" x="1560.26" y="-406.45" font-family="Times,serif" font-size="14.00">OFFICE SWITCH</text>
<text text-anchor="middle" x="1560.26" y="-389.2" font-family="Times,serif" font-size="14.00">CRS310&#45;8G+2S+IN</text>
<text text-anchor="middle" x="1560.26" y="-371.95" font-family="Times,serif" font-size="14.00">192.168.5.2</text>
</g>
<!-- core&#45;&gt;office -->
<g id="edge10" class="edge">
<title>core&#45;&gt;office</title>
<path fill="none" stroke="black" d="M1202.89,-393.88C1277.85,-393.88 1390.74,-393.88 1469.3,-393.88"/>
<polygon fill="black" stroke="black" points="1469.12,-397.38 1479.12,-393.88 1469.12,-390.38 1469.12,-397.38"/>
<text text-anchor="middle" x="1341.26" y="-397.82" font-family="Times,serif" font-size="14.00"> sfp&#45;sfpplus4→ether8 10G→2.5G</text>
</g>
<!-- nas -->
<g id="node11" class="node">
<title>nas</title>
<polygon fill="#c8e6c9" stroke="black" points="1642.14,-335.38 1478.39,-335.38 1478.39,-258.38 1642.14,-258.38 1642.14,-335.38"/>
<text text-anchor="middle" x="1560.26" y="-318.07" font-family="Times,serif" font-size="14.00">nas</text>
<text text-anchor="middle" x="1560.26" y="-300.82" font-family="Times,serif" font-size="14.00">ZFS / k3s / Attic</text>
<text text-anchor="middle" x="1560.26" y="-283.57" font-family="Times,serif" font-size="14.00">192.168.5.175 (10G)</text>
<text text-anchor="middle" x="1560.26" y="-266.32" font-family="Times,serif" font-size="14.00">.176 (1G)</text>
</g>
<!-- core&#45;&gt;nas -->
<g id="edge11" class="edge">
<title>core&#45;&gt;nas</title>
<path fill="none" stroke="black" d="M1203.05,-375.13C1216.45,-371.93 1226.14,-369.62 1226.14,-369.62 1226.14,-369.62 1368.41,-338.55 1467,-317.02"/>
<polygon fill="black" stroke="black" points="1467.69,-320.45 1476.72,-314.9 1466.2,-313.62 1467.69,-320.45"/>
<text text-anchor="middle" x="1341.26" y="-373.57" font-family="Times,serif" font-size="14.00"> sfp&#45;sfpplus2 10G SFP+</text>
</g>
<!-- closet -->
<g id="node12" class="node">
<title>closet</title>
<polygon fill="#c8e6c9" stroke="black" points="2038.89,-1070.75 1857.14,-1070.75 1857.14,-1011 2038.89,-1011 2038.89,-1070.75"/>
<text text-anchor="middle" x="1948.01" y="-1053.45" font-family="Times,serif" font-size="14.00">closet</text>
<text text-anchor="middle" x="1948.01" y="-1036.2" font-family="Times,serif" font-size="14.00">k3s / Unifi / Postgres</text>
<text text-anchor="middle" x="1948.01" y="-1018.95" font-family="Times,serif" font-size="14.00">192.168.5.35 (.36 10G)</text>
</g>
<!-- upstairs&#45;&gt;closet -->
<g id="edge12" class="edge">
<title>upstairs&#45;&gt;closet</title>
<path fill="none" stroke="black" d="M1585.9,-837.06C1616.34,-874.33 1664.14,-932.88 1664.14,-932.88 1664.14,-932.88 1773.96,-974.8 1856.74,-1006.41"/>
<polygon fill="black" stroke="black" points="1855.46,-1009.67 1866.05,-1009.96 1857.95,-1003.13 1855.46,-1009.67"/>
<text text-anchor="middle" x="1749.64" y="-1000.5" font-family="Times,serif" font-size="14.00"> sfp&#45;sfpplus1 10G SFP+</text>
</g>
<!-- arch -->
<g id="node13" class="node">
<title>arch</title>
<polygon fill="#c8e6c9" stroke="black" points="2024.26,-982.38 1871.76,-982.38 1871.76,-905.38 2024.26,-905.38 2024.26,-982.38"/>
<text text-anchor="middle" x="1948.01" y="-965.08" font-family="Times,serif" font-size="14.00">arch</text>
<text text-anchor="middle" x="1948.01" y="-947.83" font-family="Times,serif" font-size="14.00">k3s / GPU compute</text>
<text text-anchor="middle" x="1948.01" y="-930.58" font-family="Times,serif" font-size="14.00">192.168.5.226</text>
<text text-anchor="middle" x="1948.01" y="-913.33" font-family="Times,serif" font-size="14.00">(I211 1G NIC)</text>
</g>
<!-- upstairs&#45;&gt;arch -->
<g id="edge13" class="edge">
<title>upstairs&#45;&gt;arch</title>
<path fill="none" stroke="black" d="M1621.1,-837.12C1643.73,-848.56 1664.14,-858.88 1664.14,-858.88 1664.14,-858.88 1777.38,-892.9 1860.57,-917.9"/>
<polygon fill="black" stroke="black" points="1859.54,-921.25 1870.13,-920.77 1861.56,-914.54 1859.54,-921.25"/>
<text text-anchor="middle" x="1749.64" y="-912.94" font-family="Times,serif" font-size="14.00"> ether7 1G</text>
</g>
<!-- glkvm -->
<g id="node14" class="node">
<title>glkvm</title>
<polygon fill="#e1bee7" stroke="black" points="1998.76,-876.75 1897.26,-876.75 1897.26,-817 1998.76,-817 1998.76,-876.75"/>
<text text-anchor="middle" x="1948.01" y="-859.45" font-family="Times,serif" font-size="14.00">GL&#45;KVM</text>
<text text-anchor="middle" x="1948.01" y="-842.2" font-family="Times,serif" font-size="14.00">OpenWrt</text>
<text text-anchor="middle" x="1948.01" y="-824.95" font-family="Times,serif" font-size="14.00">192.168.5.8</text>
</g>
<!-- upstairs&#45;&gt;glkvm -->
<g id="edge14" class="edge">
<title>upstairs&#45;&gt;glkvm</title>
<path fill="none" stroke="black" d="M1639.79,-815.02C1712.46,-822.55 1819.04,-833.61 1885.65,-840.51"/>
<polygon fill="black" stroke="black" points="1884.99,-843.96 1895.29,-841.51 1885.71,-837 1884.99,-843.96"/>
<text text-anchor="middle" x="1749.64" y="-839.01" font-family="Times,serif" font-size="14.00"> ether2 1G</text>
</g>
<!-- brother -->
<g id="node15" class="node">
<title>brother</title>
<polygon fill="#e1bee7" stroke="black" points="2011.14,-788.12 1884.89,-788.12 1884.89,-745.62 2011.14,-745.62 2011.14,-788.12"/>
<text text-anchor="middle" x="1948.01" y="-770.83" font-family="Times,serif" font-size="14.00">Brother printer</text>
<text text-anchor="middle" x="1948.01" y="-753.58" font-family="Times,serif" font-size="14.00">192.168.5.6</text>
</g>
<!-- upstairs&#45;&gt;brother -->
<g id="edge15" class="edge">
<title>upstairs&#45;&gt;brother</title>
<path fill="none" stroke="black" d="M1639.76,-796.77C1653.84,-794.95 1664.14,-793.62 1664.14,-793.62 1664.14,-793.62 1789.49,-781.77 1873.3,-773.85"/>
<polygon fill="black" stroke="black" points="1873.45,-777.35 1883.08,-772.92 1872.79,-770.38 1873.45,-777.35"/>
<text text-anchor="middle" x="1749.64" y="-797.58" font-family="Times,serif" font-size="14.00"> ether6 100M HD</text>
</g>
<!-- nvr -->
<g id="node16" class="node">
<title>nvr</title>
<polygon fill="#ffcdd2" stroke="black" points="2003.26,-716.75 1892.76,-716.75 1892.76,-657 2003.26,-657 2003.26,-716.75"/>
<text text-anchor="middle" x="1948.01" y="-699.45" font-family="Times,serif" font-size="14.00">Reolink NVR</text>
<text text-anchor="middle" x="1948.01" y="-682.2" font-family="Times,serif" font-size="14.00">(PoE switch)</text>
<text text-anchor="middle" x="1948.01" y="-664.95" font-family="Times,serif" font-size="14.00">192.168.1.67</text>
</g>
<!-- upstairs&#45;&gt;nvr -->
<g id="edge16" class="edge">
<title>upstairs&#45;&gt;nvr</title>
<path fill="none" stroke="black" d="M1619.91,-776.52C1643.01,-764.56 1664.14,-753.62 1664.14,-753.62 1664.14,-753.62 1797.71,-722.11 1881.28,-702.39"/>
<polygon fill="black" stroke="black" points="1882.07,-705.8 1891,-700.09 1880.46,-698.98 1882.07,-705.8"/>
<text text-anchor="middle" x="1749.64" y="-757.58" font-family="Times,serif" font-size="14.00"> ether1 100M</text>
</g>
<!-- u7proxgs -->
<g id="node19" class="node">
<title>u7proxgs</title>
<polygon fill="#d7ccc8" stroke="black" points="2022.01,-472.75 1874.01,-472.75 1874.01,-413 2022.01,-413 2022.01,-472.75"/>
<text text-anchor="middle" x="1948.01" y="-455.45" font-family="Times,serif" font-size="14.00">U7 Pro XGS</text>
<text text-anchor="middle" x="1948.01" y="-438.2" font-family="Times,serif" font-size="14.00">WiFi 7 tri&#45;band AP</text>
<text text-anchor="middle" x="1948.01" y="-420.95" font-family="Times,serif" font-size="14.00">192.168.5.171</text>
</g>
<!-- office&#45;&gt;u7proxgs -->
<g id="edge19" class="edge">
<title>office&#45;&gt;u7proxgs</title>
<path fill="none" stroke="black" d="M1639.79,-403.85C1704.55,-412.08 1796.23,-423.72 1862.57,-432.15"/>
<polygon fill="black" stroke="black" points="1861.95,-435.6 1872.32,-433.39 1862.84,-428.65 1861.95,-435.6"/>
<text text-anchor="middle" x="1749.64" y="-432.35" font-family="Times,serif" font-size="14.00"> ether4 2.5G</text>
</g>
<!-- u7lite -->
<g id="node20" class="node">
<title>u7lite</title>
<polygon fill="#d7ccc8" stroke="black" points="2037.39,-383.75 1858.64,-383.75 1858.64,-324 2037.39,-324 2037.39,-383.75"/>
<text text-anchor="middle" x="1948.01" y="-366.45" font-family="Times,serif" font-size="14.00">U7 Lite</text>
<text text-anchor="middle" x="1948.01" y="-349.2" font-family="Times,serif" font-size="14.00">WiFi 7 AP (Blue Room)</text>
<text text-anchor="middle" x="1948.01" y="-331.95" font-family="Times,serif" font-size="14.00">192.168.5.173</text>
</g>
<!-- office&#45;&gt;u7lite -->
<g id="edge20" class="edge">
<title>office&#45;&gt;u7lite</title>
<path fill="none" stroke="black" d="M1639.76,-376.13C1653.84,-372.95 1664.14,-370.62 1664.14,-370.62 1664.14,-370.62 1765.56,-364.62 1846.94,-359.8"/>
<polygon fill="black" stroke="black" points="1847,-363.3 1856.77,-359.22 1846.58,-356.32 1847,-363.3"/>
<text text-anchor="middle" x="1749.64" y="-374.57" font-family="Times,serif" font-size="14.00"> 1G</text>
</g>
<!-- pite -->
<g id="node27" class="node">
<title>pite</title>
<polygon fill="#c8e6c9" stroke="black" points="2007.76,-294.75 1888.26,-294.75 1888.26,-235 2007.76,-235 2007.76,-294.75"/>
<text text-anchor="middle" x="1948.01" y="-277.45" font-family="Times,serif" font-size="14.00">pite</text>
<text text-anchor="middle" x="1948.01" y="-260.2" font-family="Times,serif" font-size="14.00">k3s canary</text>
<text text-anchor="middle" x="1948.01" y="-242.95" font-family="Times,serif" font-size="14.00">192.168.5.213</text>
</g>
<!-- office&#45;&gt;pite -->
<g id="edge28" class="edge">
<title>office&#45;&gt;pite</title>
<path fill="none" stroke="black" d="M1616.99,-363.56C1631,-355.93 1642.14,-349.88 1642.14,-349.88 1642.14,-349.88 1664.14,-336.62 1664.14,-336.62 1664.14,-336.62 1793.29,-303.86 1877.06,-282.62"/>
<polygon fill="black" stroke="black" points="1877.76,-286.05 1886.59,-280.2 1876.03,-279.27 1877.76,-286.05"/>
<text text-anchor="middle" x="1749.64" y="-340.57" font-family="Times,serif" font-size="14.00"> ether1 1G</text>
</g>
<!-- cam_gate -->
<g id="node17" class="node">
<title>cam_gate</title>
<polygon fill="#ffcdd2" stroke="black" points="2386.16,-780.12 2258.41,-780.12 2258.41,-737.62 2386.16,-737.62 2386.16,-780.12"/>
<text text-anchor="middle" x="2322.28" y="-762.83" font-family="Times,serif" font-size="14.00">Front Gate cam</text>
<text text-anchor="middle" x="2322.28" y="-745.58" font-family="Times,serif" font-size="14.00">192.168.1.64</text>
</g>
<!-- nvr&#45;&gt;cam_gate -->
<g id="edge17" class="edge">
<title>nvr&#45;&gt;cam_gate</title>
<path fill="none" stroke="black" d="M2003.64,-698.59C2032.04,-704.69 2060.89,-710.88 2060.89,-710.88 2060.89,-710.88 2169.85,-730.96 2246.81,-745.15"/>
<polygon fill="black" stroke="black" points="2245.96,-748.55 2256.43,-746.92 2247.23,-741.66 2245.96,-748.55"/>
<text text-anchor="middle" x="2099.89" y="-729.01" font-family="Times,serif" font-size="14.00"> PoE 100M</text>
</g>
<!-- cam_porch -->
<g id="node18" class="node">
<title>cam_porch</title>
<polygon fill="#ffcdd2" stroke="black" points="2389.53,-708.12 2255.03,-708.12 2255.03,-665.62 2389.53,-665.62 2389.53,-708.12"/>
<text text-anchor="middle" x="2322.28" y="-690.83" font-family="Times,serif" font-size="14.00">Front Porch cam</text>
<text text-anchor="middle" x="2322.28" y="-673.58" font-family="Times,serif" font-size="14.00">192.168.1.63</text>
</g>
<!-- nvr&#45;&gt;cam_porch -->
<g id="edge18" class="edge">
<title>nvr&#45;&gt;cam_porch</title>
<path fill="none" stroke="black" d="M2003.54,-686.88C2066.8,-686.88 2171.59,-686.88 2243.41,-686.88"/>
<polygon fill="black" stroke="black" points="2243.13,-690.38 2253.13,-686.88 2243.13,-683.38 2243.13,-690.38"/>
<text text-anchor="middle" x="2099.89" y="-690.83" font-family="Times,serif" font-size="14.00"> PoE 100M</text>
</g>
<!-- officepc -->
<g id="node21" class="node">
<title>officepc</title>
<polygon fill="#c8e6c9" stroke="black" points="2388.03,-636.38 2256.53,-636.38 2256.53,-559.38 2388.03,-559.38 2388.03,-636.38"/>
<text text-anchor="middle" x="2322.28" y="-619.08" font-family="Times,serif" font-size="14.00">office</text>
<text text-anchor="middle" x="2322.28" y="-601.83" font-family="Times,serif" font-size="14.00">k3s agent / GPU</text>
<text text-anchor="middle" x="2322.28" y="-584.58" font-family="Times,serif" font-size="14.00">192.168.5.209</text>
<text text-anchor="middle" x="2322.28" y="-567.33" font-family="Times,serif" font-size="14.00">(via WiFi)</text>
</g>
<!-- u7proxgs&#45;&gt;officepc -->
<g id="edge21" class="edge">
<title>u7proxgs&#45;&gt;officepc</title>
<path fill="none" stroke="black" d="M2012.01,-473.2C2074.46,-503.27 2160.89,-544.88 2160.89,-544.88 2160.89,-544.88 2203.83,-559.07 2245.28,-572.76"/>
<polygon fill="black" stroke="black" points="2244.01,-576.03 2254.61,-575.84 2246.21,-569.38 2244.01,-576.03"/>
<text text-anchor="middle" x="2099.89" y="-538.22" font-family="Times,serif" font-size="14.00"> WiFi</text>
</g>
<!-- secu -->
<g id="node22" class="node">
<title>secu</title>
<polygon fill="#c8e6c9" stroke="black" points="2395.91,-530.38 2248.66,-530.38 2248.66,-453.38 2395.91,-453.38 2395.91,-530.38"/>
<text text-anchor="middle" x="2322.28" y="-513.08" font-family="Times,serif" font-size="14.00">secu</text>
<text text-anchor="middle" x="2322.28" y="-495.82" font-family="Times,serif" font-size="14.00">Camera NVR (SW)</text>
<text text-anchor="middle" x="2322.28" y="-478.57" font-family="Times,serif" font-size="14.00">192.168.5.140</text>
<text text-anchor="middle" x="2322.28" y="-461.32" font-family="Times,serif" font-size="14.00">(via WiFi)</text>
</g>
<!-- u7proxgs&#45;&gt;secu -->
<g id="edge22" class="edge">
<title>u7proxgs&#45;&gt;secu</title>
<path fill="none" stroke="black" d="M2022.12,-452.5C2083.84,-460.62 2172.25,-472.26 2236.96,-480.78"/>
<polygon fill="black" stroke="black" points="2236.47,-484.24 2246.84,-482.08 2237.39,-477.3 2236.47,-484.24"/>
<text text-anchor="middle" x="2099.89" y="-471.32" font-family="Times,serif" font-size="14.00"> WiFi</text>
</g>
<!-- cam_garage -->
<g id="node24" class="node">
<title>cam_garage</title>
<polygon fill="#ffcdd2" stroke="black" points="2377.53,-424.75 2267.03,-424.75 2267.03,-365 2377.53,-365 2377.53,-424.75"/>
<text text-anchor="middle" x="2322.28" y="-407.45" font-family="Times,serif" font-size="14.00">Garage cam</text>
<text text-anchor="middle" x="2322.28" y="-390.2" font-family="Times,serif" font-size="14.00">192.168.1.61</text>
<text text-anchor="middle" x="2322.28" y="-372.95" font-family="Times,serif" font-size="14.00">(WiFi)</text>
</g>
<!-- u7proxgs&#45;&gt;cam_garage -->
<g id="edge23" class="edge">
<title>u7proxgs&#45;&gt;cam_garage</title>
<path fill="none" stroke="black" stroke-dasharray="1,5" d="M2022.12,-433.45C2089.93,-424.7 2189.97,-411.81 2255.38,-403.37"/>
<polygon fill="black" stroke="black" points="2255.8,-406.85 2265.27,-402.1 2254.9,-399.91 2255.8,-406.85"/>
<text text-anchor="middle" x="2099.89" y="-431.3" font-family="Times,serif" font-size="14.00"> WiFi</text>
</g>
<!-- cam_side -->
<g id="node25" class="node">
<title>cam_side</title>
<polygon fill="#ffcdd2" stroke="black" points="2381.28,-335.75 2263.28,-335.75 2263.28,-276 2381.28,-276 2381.28,-335.75"/>
<text text-anchor="middle" x="2322.28" y="-318.45" font-family="Times,serif" font-size="14.00">Side yard cam</text>
<text text-anchor="middle" x="2322.28" y="-301.2" font-family="Times,serif" font-size="14.00">192.168.1.65</text>
<text text-anchor="middle" x="2322.28" y="-283.95" font-family="Times,serif" font-size="14.00">(WiFi)</text>
</g>
<!-- u7proxgs&#45;&gt;cam_side -->
<g id="edge24" class="edge">
<title>u7proxgs&#45;&gt;cam_side</title>
<path fill="none" stroke="black" stroke-dasharray="1,5" d="M2018.68,-412.62C2080.43,-385.81 2160.89,-350.88 2160.89,-350.88 2160.89,-350.88 2208.63,-337.48 2252.02,-325.31"/>
<polygon fill="black" stroke="black" points="2252.78,-328.73 2261.46,-322.66 2250.89,-321.99 2252.78,-328.73"/>
<text text-anchor="middle" x="2099.89" y="-398.07" font-family="Times,serif" font-size="14.00"> WiFi</text>
</g>
<!-- iot -->
<g id="node26" class="node">
<title>iot</title>
<ellipse fill="#f5f5f5" stroke="black" cx="2322.28" cy="-167.88" rx="161.4" ry="78.84"/>
<text text-anchor="middle" x="2322.28" y="-206.32" font-family="Times,serif" font-size="14.00">IoT / transient clients:</text>
<text text-anchor="middle" x="2322.28" y="-189.07" font-family="Times,serif" font-size="14.00">AiDot lights (.164&#45;.168)</text>
<text text-anchor="middle" x="2322.28" y="-171.82" font-family="Times,serif" font-size="14.00">Akamatis sensors (.165, .170)</text>
<text text-anchor="middle" x="2322.28" y="-154.57" font-family="Times,serif" font-size="14.00">WiZ (.132), Peloton (.146)</text>
<text text-anchor="middle" x="2322.28" y="-137.32" font-family="Times,serif" font-size="14.00">Bedroom switch (.172)</text>
<text text-anchor="middle" x="2322.28" y="-120.08" font-family="Times,serif" font-size="14.00">iPhones, Mac, Pop!_OS</text>
</g>
<!-- u7proxgs&#45;&gt;iot -->
<g id="edge26" class="edge">
<title>u7proxgs&#45;&gt;iot</title>
<path fill="none" stroke="gray" stroke-dasharray="1,5" d="M2009.46,-412.61C2025.71,-404.47 2038.89,-397.88 2038.89,-397.88 2038.89,-397.88 2060.89,-353.88 2060.89,-353.88 2060.89,-353.88 2160.89,-261.88 2160.89,-261.88 2160.89,-261.88 2181.66,-249.7 2208.26,-234.11"/>
<polygon fill="gray" stroke="gray" points="2209.72,-237.31 2216.58,-229.23 2206.18,-231.27 2209.72,-237.31"/>
</g>
<!-- cam_back -->
<g id="node23" class="node">
<title>cam_back</title>
<polygon fill="#ffcdd2" stroke="black" points="2382.78,-59.75 2261.78,-59.75 2261.78,0 2382.78,0 2382.78,-59.75"/>
<text text-anchor="middle" x="2322.28" y="-42.45" font-family="Times,serif" font-size="14.00">Back yard cam</text>
<text text-anchor="middle" x="2322.28" y="-25.2" font-family="Times,serif" font-size="14.00">192.168.1.60</text>
<text text-anchor="middle" x="2322.28" y="-7.95" font-family="Times,serif" font-size="14.00">(WiFi)</text>
</g>
<!-- u7lite&#45;&gt;cam_back -->
<g id="edge25" class="edge">
<title>u7lite&#45;&gt;cam_back</title>
<path fill="none" stroke="black" stroke-dasharray="1,5" d="M2009.46,-323.61C2025.71,-315.47 2038.89,-308.88 2038.89,-308.88 2038.89,-308.88 2060.89,-130.62 2060.89,-130.62 2060.89,-130.62 2160.89,-74.88 2160.89,-74.88 2160.89,-74.88 2207.68,-61.75 2250.73,-49.67"/>
<polygon fill="black" stroke="black" points="2251.42,-53.11 2260.1,-47.04 2249.53,-46.37 2251.42,-53.11"/>
<text text-anchor="middle" x="2099.89" y="-134.57" font-family="Times,serif" font-size="14.00"> WiFi</text>
</g>
<!-- u7lite&#45;&gt;iot -->
<g id="edge27" class="edge">
<title>u7lite&#45;&gt;iot</title>
<path fill="none" stroke="gray" stroke-dasharray="1,5" d="M2009.46,-323.61C2025.71,-315.47 2038.89,-308.88 2038.89,-308.88 2038.89,-308.88 2060.89,-154.88 2060.89,-154.88 2060.89,-154.88 2138.89,-154.88 2138.89,-154.88 2138.89,-154.88 2143.43,-155.2 2151.1,-155.75"/>
<polygon fill="gray" stroke="gray" points="2150.62,-159.22 2160.85,-156.44 2151.12,-152.24 2150.62,-159.22"/>
</g>
<!-- legend_wan -->
<g id="node28" class="node">
<title>legend_wan</title>
<polygon fill="#ffcc80" stroke="black" points="113.38,-382.88 23.88,-382.88 23.88,-346.88 113.38,-346.88 113.38,-382.88"/>
<text text-anchor="middle" x="68.62" y="-360.2" font-family="Times,serif" font-size="14.00">WAN / ISP</text>
</g>
<!-- legend_router -->
<g id="node29" class="node">
<title>legend_router</title>
<polygon fill="#bbdefb" stroke="black" points="104.62,-447.88 32.62,-447.88 32.62,-411.88 104.62,-411.88 104.62,-447.88"/>
<text text-anchor="middle" x="68.62" y="-425.2" font-family="Times,serif" font-size="14.00">Router</text>
</g>
<!-- legend_switch -->
<g id="node30" class="node">
<title>legend_switch</title>
<polygon fill="#fff9c4" stroke="black" points="104.62,-512.88 32.62,-512.88 32.62,-476.88 104.62,-476.88 104.62,-512.88"/>
<text text-anchor="middle" x="68.62" y="-490.2" font-family="Times,serif" font-size="14.00">Switch</text>
</g>
<!-- legend_server -->
<g id="node31" class="node">
<title>legend_server</title>
<polygon fill="#c8e6c9" stroke="black" points="104.62,-577.88 32.62,-577.88 32.62,-541.88 104.62,-541.88 104.62,-577.88"/>
<text text-anchor="middle" x="68.62" y="-555.2" font-family="Times,serif" font-size="14.00">Server</text>
</g>
<!-- legend_iot -->
<g id="node32" class="node">
<title>legend_iot</title>
<polygon fill="#e1bee7" stroke="black" points="111.88,-642.88 25.38,-642.88 25.38,-606.88 111.88,-606.88 111.88,-642.88"/>
<text text-anchor="middle" x="68.62" y="-620.2" font-family="Times,serif" font-size="14.00">IoT / KVM</text>
</g>
<!-- legend_cam -->
<g id="node33" class="node">
<title>legend_cam</title>
<polygon fill="#ffcdd2" stroke="black" points="104.62,-707.88 32.62,-707.88 32.62,-671.88 104.62,-671.88 104.62,-707.88"/>
<text text-anchor="middle" x="68.62" y="-685.2" font-family="Times,serif" font-size="14.00">Camera</text>
</g>
<!-- legend_ap -->
<g id="node34" class="node">
<title>legend_ap</title>
<polygon fill="#d7ccc8" stroke="black" points="121.25,-772.88 16,-772.88 16,-736.88 121.25,-736.88 121.25,-772.88"/>
<text text-anchor="middle" x="68.62" y="-750.2" font-family="Times,serif" font-size="14.00">Access Point</text>
</g>
</g>
</svg>
